<?xml version="1.0" standalone="no"?>
<!DOCTYPE svg PUBLIC "-//W3C//DTD SVG 1.1//EN" "http://www.w3.org/Graphics/SVG/1.1/DTD/svg11.dtd" >
<svg xmlns="http://www.w3.org/2000/svg">
<metadata>Generated by IcoMoon</metadata>
<defs>
<font id="icomoon" horiz-adv-x="1024">
<font-face units-per-em="1024" ascent="960" descent="-64" />
<missing-glyph horiz-adv-x="1024" />
<glyph unicode="&#x20;" horiz-adv-x="512" d="" />
<glyph unicode="&#xe900;" glyph-name="doc-certificate" horiz-adv-x="698" d="M384.698-61.207c3.338-1.96 7.352-3.118 11.636-3.118s8.298 1.158 11.746 3.177l-0.11-0.059 57.484 39.098 56.785-37.935c3.654-2.5 8.169-3.991 13.033-3.991 12.853 0 23.273 10.42 23.273 23.273 0 0.012 0 0.025 0 0.037v-0.002 198.749c28.622 25.68 46.545 62.786 46.545 104.079 0 77.119-62.517 139.636-139.636 139.636s-139.636-62.517-139.636-139.636c0-41.293 17.924-78.399 46.415-103.964l0.13-0.115v-198.749c0.024-8.825 4.957-16.493 12.212-20.419l0.123-0.061zM512 2.793l-33.513 23.273c-3.629 2.451-8.102 3.913-12.916 3.913s-9.287-1.462-12.999-3.966l0.083 0.053-33.745-23.273v127.535c13.848-5.159 29.848-8.144 46.545-8.144s32.697 2.985 47.495 8.452l-0.95-0.307v-127.535zM465.455 354.909c51.413 0 93.091-41.678 93.091-93.091s-41.678-93.091-93.091-93.091c-51.413 0-93.091 41.678-93.091 93.091v0c0 51.413 41.678 93.091 93.091 93.091v0 0zM93.091 75.636h209.455c12.853 0 23.273 10.42 23.273 23.273s-10.42 23.273-23.273 23.273v0h-209.455c-25.706 0-46.545 20.839-46.545 46.545v0 698.182c0 25.706 20.839 46.545 46.545 46.545v0h372.364v-93.091c0-51.413 41.678-93.091 93.091-93.091v0h93.091v-558.545c0-0.038 0-0.084 0-0.129 0-20.116-12.761-37.252-30.629-43.753l-0.324-0.103c-9.022-3.341-15.337-11.872-15.337-21.878 0-12.763 10.274-23.127 23.003-23.271h0.014c2.764 0.032 5.399 0.542 7.841 1.449l-0.161-0.052c36.489 13.137 62.113 47.442 62.138 87.735v605.094c0 0.040 0 0.087 0 0.135 0 6.393-2.578 12.184-6.751 16.391l0.001-0.002-162.909 162.909c-4.205 4.172-9.996 6.749-16.389 6.749-0.047 0-0.095 0-0.142 0h-418.902c-51.413 0-93.091-41.678-93.091-93.091v0-698.182c0-51.413 41.678-93.091 93.091-93.091v0 0zM642.095 773.818h-83.549c-25.706 0-46.545 20.839-46.545 46.545v0 83.549l130.095-130.095zM162.909 680.727h186.182c12.853 0 23.273 10.42 23.273 23.273s-10.42 23.273-23.273 23.273v0h-186.182c-12.853 0-23.273-10.42-23.273-23.273s10.42-23.273 23.273-23.273v0 0zM162.909 587.636h372.364c12.853 0 23.273 10.42 23.273 23.273s-10.42 23.273-23.273 23.273v0h-372.364c-12.853 0-23.273-10.42-23.273-23.273s10.42-23.273 23.273-23.273v0 0zM162.909 494.545h372.364c12.853 0 23.273 10.42 23.273 23.273s-10.42 23.273-23.273 23.273v0h-372.364c-12.853 0-23.273-10.42-23.273-23.273s10.42-23.273 23.273-23.273v0 0z" />
<glyph unicode="&#xe901;" glyph-name="loc-point-heart" horiz-adv-x="698" d="M328.844-52.364c4.104-6.982 11.579-11.595 20.131-11.595s16.027 4.613 20.072 11.486l0.059 0.109 282.531 488.029c29.182 49.921 46.411 109.91 46.411 173.924 0 192.798-156.293 349.091-349.091 349.091s-349.091-156.293-349.091-349.091c0-64.203 17.332-124.357 47.572-176.040l-0.892 1.651 282.298-487.564zM349.091 913.455c167.082-0.013 302.523-135.462 302.523-302.545 0-55.981-15.204-108.41-41.708-153.385l0.771 1.414-261.585-453.12-261.353 452.655c-25.901 43.671-41.209 96.266-41.209 152.436 0 167.091 135.454 302.545 302.545 302.545 0.006 0 0.011 0 0.017 0h-0.001zM332.335 408.669c4.239-4.394 10.179-7.122 16.756-7.122s12.517 2.728 16.75 7.115l156.399 162.916c22.468 21 36.471 50.814 36.471 83.898s-14.003 62.898-36.406 83.837l-0.066 0.061c-22.651 20.938-53.055 33.779-86.458 33.779s-63.807-12.842-86.544-33.857l0.085 0.078c-22.672 20.889-53.070 33.696-86.458 33.696s-63.786-12.807-86.548-33.777l0.089 0.081c-22.321-20.983-36.223-50.701-36.223-83.665s13.902-62.682 36.163-83.61l0.060-0.056 156.858-162.909zM208.291 705.862c14.116 13.264 33.172 21.413 54.131 21.413 0.197 0 0.394-0.001 0.59-0.002h-0.030c21.872-0.23 41.635-9.070 56.099-23.284l-0.012 0.011 15.127-12.8c4.041-3.473 9.337-5.587 15.127-5.587s11.086 2.114 15.158 5.613l-0.031-0.026 15.825 13.731c14.366 13.357 33.688 21.553 54.924 21.553s40.558-8.197 54.974-21.599l-0.050 0.046c13.614-12.508 22.116-30.396 22.116-50.269s-8.502-37.761-22.066-50.224l-0.049-0.045-139.636-146.153-140.8 146.851c-13.614 12.508-22.116 30.396-22.116 50.269s8.502 37.761 22.066 50.224l0.049 0.045z" />
<glyph unicode="&#xe902;" glyph-name="spo-archery-target" d="M1009.571 818.502c-2.606 1.141-5.64 1.822-8.829 1.862h-116.379v116.364c-0.040 3.203-0.721 6.237-1.92 8.994l0.058-0.15c-3.609 8.464-11.859 14.289-21.469 14.289-3.167 0-6.187-0.633-8.94-1.779l0.154 0.057c-2.991-1.242-5.543-2.974-7.679-5.119l-139.637-139.637c-2.125-2.075-3.852-4.547-5.061-7.298l-0.059-0.149c-1.032-2.535-1.631-5.477-1.631-8.559 0-0.1 0.001-0.2 0.002-0.3v0.015-59.113c-70.288 49.221-157.576 78.654-251.738 78.654-244.21 0-442.182-197.972-442.182-442.182 0-111.953 41.605-214.188 110.196-292.088l-0.422 0.489-107.055-107.055c-4.993-4.294-8.135-10.618-8.135-17.677 0-12.853 10.42-23.273 23.273-23.273 7.058 0 13.383 3.142 17.651 8.104l0.026 0.031 107.055 107.055c77.705-70.738 181.459-114.055 295.331-114.055s217.627 43.317 295.685 114.372l-0.354-0.318 107.055-107.055c4.043-3.478 9.343-5.596 15.138-5.596 12.853 0 23.273 10.42 23.273 23.273 0 5.795-2.118 11.095-5.622 15.169l0.026-0.031-107.055 107.055c70.696 77.695 113.986 181.419 113.986 295.255 0 96.118-30.863 185.027-83.218 257.358l0.884-1.282h59.113c0.040 0 0.087 0 0.135 0 6.393 0 12.184 2.578 16.391 6.751l-0.002-0.001 139.636 139.636c4.244 4.217 6.871 10.057 6.871 16.511 0 3.194-0.644 6.239-1.808 9.010l0.057-0.153c-2.412 5.706-6.862 10.155-12.415 12.51l-0.153 0.057zM851.549 680.727h-74.007l93.091 93.091h73.775l-93.091-93.091zM744.727 787.549l93.091 93.091v-74.007l-93.091-93.091v74.007zM837.818 378.182c0-0.149 0-0.324 0-0.5 0-218.504-177.132-395.636-395.636-395.636s-395.636 177.132-395.636 395.636c0 218.504 177.132 395.636 395.636 395.636 97.89 0 187.477-35.552 256.553-94.447l-0.553 0.46v-12.102l-59.345-59.345c-52.575 45.269-121.515 72.836-196.895 72.836-167.091 0-302.545-135.454-302.545-302.545s135.454-302.545 302.545-302.545c167.091 0 302.545 135.454 302.545 302.545 0 75.38-27.567 144.32-73.17 197.291l0.333-0.396 59.345 59.113h12.102c58.852-68.362 94.698-157.993 94.72-255.995v-0.005zM558.545 378.182c0-0.040 0-0.088 0-0.136 0-64.266-52.098-116.364-116.364-116.364s-116.364 52.098-116.364 116.364c0 64.266 52.098 116.364 116.364 116.364 23.826 0 45.98-7.161 64.426-19.448l-0.426 0.267-80.524-80.524c-4.993-4.294-8.135-10.618-8.135-17.677 0-12.853 10.42-23.273 23.273-23.273 7.058 0 13.383 3.142 17.651 8.104l0.026 0.031 80.524 80.524c12.188-18.052 19.48-40.284 19.549-64.215v-0.018zM539.462 508.509c-26.862 20.28-60.812 32.482-97.612 32.482-89.972 0-162.909-72.937-162.909-162.909s72.937-162.909 162.909-162.909c89.972 0 162.909 72.937 162.909 162.909 0 36.8-12.202 70.75-32.781 98.026l0.299-0.413 66.56 65.396c36.649-43.974 58.896-101.068 58.896-163.359 0-141.385-114.615-256-256-256s-256 114.615-256 256c0 141.385 114.615 256 256 256 62.291 0 119.385-22.247 163.771-59.23l-0.412 0.334-65.629-66.327z" />
<glyph unicode="&#xe903;" glyph-name="tim-stop-watch" horiz-adv-x="791" d="M395.636-64c218.179 0.43 394.882 177.397 394.882 395.636 0 89.207-29.524 171.519-79.335 237.696l0.729-1.012 49.338 49.338c4.182 4.207 6.768 10.005 6.768 16.407s-2.585 12.201-6.769 16.408l-46.544 46.544c-4.207 4.182-10.005 6.768-16.407 6.768s-12.201-2.585-16.408-6.769l-49.337-49.337c-37.746 28.654-82.073 51.019-130.115 64.499l-2.772 0.664c34.985 23.638 57.925 62.801 58.878 107.377l0.002 0.143c0 77.033-73.076 139.636-162.909 139.636s-162.909-62.604-162.909-139.636c1.035-44.63 23.956-83.692 58.411-106.989l0.469-0.299c-50.814-14.145-95.141-36.51-133.867-65.876l0.98 0.712-49.105 49.338c-4.207 4.182-10.005 6.768-16.407 6.768s-12.201-2.585-16.408-6.769l-46.544-46.544c-4.182-4.207-6.768-10.005-6.768-16.407s2.585-12.201 6.769-16.408l49.337-49.337c-49.187-65.21-78.779-147.608-78.779-236.917 0-218.218 176.669-395.173 394.779-395.635h0.044zM698.182 647.913l13.731-13.731-30.022-30.022-13.731 13.731 30.022 30.022zM395.636 913.455c64.233 0 116.364-41.658 116.364-93.091 0-44.916-40.029-82.618-93.091-91.229v44.684h23.273c12.853 0 23.273 10.42 23.273 23.273v0 46.545c0 12.853-10.42 23.273-23.273 23.273v0h-93.091c-12.853 0-23.273-10.42-23.273-23.273v0-46.545c0-12.853 10.42-23.273 23.273-23.273v0h23.273v-44.684c-53.062 8.611-93.091 46.545-93.091 91.229 0 51.433 52.131 93.091 116.364 93.091v0zM663.971 554.589v0 0c49.68-59.868 79.825-137.5 79.825-222.172 0-192.798-156.293-349.091-349.091-349.091s-349.091 156.293-349.091 349.091c0 84.673 30.146 162.305 80.29 222.749l-0.465-0.577c64.484 77.103 160.723 125.795 268.335 125.795s203.851-48.692 267.887-125.245l0.447-0.55zM79.36 634.182l13.731 13.731 30.022-30.022-13.731-13.731-30.022 30.022zM302.545 215.273c0.040 0 0.087 0 0.135 0 6.393 0 12.184 2.578 16.391 6.751l-0.002-0.001 46.545 46.545c8.764-4.259 19.065-6.749 29.948-6.749 0.026 0 0.052 0 0.078 0h-0.004c38.475 0.112 69.621 31.328 69.621 69.818 0 10.911-2.503 21.238-6.966 30.437l0.182-0.415 139.636 139.636c3.478 4.043 5.596 9.343 5.596 15.138 0 12.853-10.42 23.273-23.273 23.273-5.795 0-11.095-2.118-15.169-5.622l0.031 0.026-139.636-139.636c-8.742 4.108-18.985 6.506-29.788 6.506-19.149 0-36.538-7.533-49.366-19.797l0.027 0.025c-12.561-12.622-20.327-30.027-20.327-49.246 0-10.947 2.52-21.306 7.010-30.528l-0.182 0.414-46.545-46.545c-4.394-4.239-7.122-10.179-7.122-16.757 0-12.821 10.367-23.22 23.175-23.273h0.005zM379.113 348.16c4.218 4.252 10.063 6.884 16.523 6.884 12.853 0 23.273-10.42 23.273-23.273s-10.42-23.273-23.273-23.273c-12.806 0-23.196 10.343-23.272 23.131v0.007c0 0.040 0 0.087 0 0.135 0 6.393 2.578 12.184 6.751 16.391l-0.001-0.002z" />
<glyph unicode="&#xe904;" glyph-name="des-ink-well" d="M72.86-40.722c0-12.856 10.422-23.278 23.278-23.278s23.278 10.422 23.278 23.278v0c0 0.366 0 0.8 0 1.234 0 73.397 4.483 145.746 13.189 216.79l-0.851-8.522c32.822 19.554 188.552 120.813 277.474 346.61 6.751 17.226 12.57 33.986 17.924 50.513v1.397s0 0 0 0c69.834 219.744 20.485 370.353 18.157 377.104v0c-0.393 1.528-0.87 2.844-1.457 4.1l0.060-0.143c-0.894 1.681-1.899 3.131-3.050 4.45l0.024-0.028-2.095 1.397c-1.476 1.444-3.161 2.683-5.003 3.667l-0.118 0.057h-14.665c-98.468-29.55-183.884-75.887-257.328-136.258l1.269 1.013c-2.702-1.181-5.015-2.748-6.989-4.661l0.006 0.006-3.724-4.423c-93.371-79.165-152.238-196.55-152.238-327.685 0-0.024 0-0.049 0-0.073v0.004c-0.018-1.683-0.029-3.672-0.029-5.663 0-110.201 32.203-212.882 87.711-299.143l-1.321 2.193c-8.596-67.070-13.501-144.663-13.501-223.402 0-0.187 0-0.373 0-0.56v0.027zM139.668 230.001c56.1 354.059 208.105 576.131 272.12 656.673 4.245-28.125 6.669-60.58 6.669-93.602 0-76.502-13.013-149.965-36.946-218.296l1.412 4.628c-44.461-122.442-141.298-145.022-145.72-145.953-11.832-1.279-20.962-11.212-20.962-23.278 0-12.927 10.479-23.406 23.406-23.406 0.861 0 1.711 0.046 2.548 0.137l-0.104-0.009h4.656c22.497 5.631 42.278 14.104 60.271 25.198l-0.912-0.523c-44.999-71.293-100.359-131.471-164.764-180.35l-1.674-1.218zM46.556 486.060c-0.008 0.912-0.013 1.99-0.013 3.069 0 81.983 26.638 157.745 71.732 219.101l-0.721-1.029c0.227-27.678 4.207-54.335 11.454-79.61l-0.514 2.094c3.396-8.919 11.876-15.141 21.809-15.141 12.856 0 23.278 10.422 23.278 23.278 0 1.903-0.228 3.753-0.659 5.523l0.033-0.159s-26.071 91.25 13.268 138.039c47.434 41.375 101.95 76.349 161.169 102.657l4.105 1.628c-74.257-99.863-200.889-309.132-253.963-625.946-32.17 65.89-50.979 143.367-50.979 225.236 0 0.279 0 0.558 0.001 0.837v-0.043zM540.748 419.019l-56.333-28.166c-42.133-20.485-65.411-68.437-65.411-128.96v-246.747c0-43.711 35.435-79.145 79.145-79.145v0h446.938c43.711 0 79.145 35.435 79.145 79.145v0 246.747c0 59.825-23.278 107.777-65.411 128.029l-56.333 28.166c-10.72 5.421-17.941 16.351-17.941 28.968 0 0.373 0.006 0.744 0.019 1.114l-0.001-0.054v46.556h23.278c12.856 0 23.278 10.422 23.278 23.278s-10.422 23.278-23.278 23.278v0h-372.448c-12.856 0-23.278-10.422-23.278-23.278s10.422-23.278 23.278-23.278v0h23.278v-46.556c0-0.041 0-0.089 0-0.138 0-12.61-7.214-23.536-17.74-28.875l-0.184-0.085zM838.009 494.672v-46.556c0.27-30.47 17.818-56.778 43.311-69.628l0.451-0.206 56.333-28.166c36.779-18.39 39.573-71.929 39.573-88.224v-246.747c0-17.999-14.591-32.589-32.589-32.589v0h-446.938c-17.999 0-32.589 14.591-32.589 32.589v0 246.747c0 15.596 2.793 68.205 39.573 86.594l56.333 29.796c25.945 13.056 43.493 39.364 43.762 69.798v46.592h232.78zM567.053 333.123l-35.15-21.183c-23.169-14.137-38.403-39.275-38.409-67.971v-172.957c0-12.856 10.422-23.278 23.278-23.278s23.278 10.422 23.278 23.278v0 173.188c0.006 11.803 6.285 22.138 15.685 27.852l0.144 0.082 35.15 21.183c5.839 4.282 9.587 11.116 9.587 18.826 0 12.856-10.422 23.278-23.278 23.278-3.474 0-6.77-0.761-9.731-2.125l0.145 0.060z" />
<glyph unicode="&#xe905;" glyph-name="des-inkpen-fat" horiz-adv-x="977" d="M414.72 701.207v0c-136.611-137.076-220.393-301.149-212.945-418.909 0.401-5.846 2.903-11.041 6.749-14.895v0l2.793-3.025c-33.656-20.211-74.269-32.165-117.673-32.165-1.667 0-3.33 0.018-4.989 0.053l0.248-0.004c-12.853 0-23.273-10.42-23.273-23.273v0c0-48.64-10.007-186.182-58.88-234.124-5.808-4.283-9.534-11.099-9.534-18.785 0-12.853 10.42-23.273 23.273-23.273 7.862 0 14.814 3.899 19.027 9.868l0.049 0.073c48.873 48.407 186.182 59.113 232.727 59.345 12.853 0 23.273 10.42 23.273 23.273v0c-0.011 0.838-0.017 1.827-0.017 2.817 0 44.074 12.023 85.339 32.968 120.696l-0.602-1.099 3.956-2.327c3.909-3.894 9.195-6.408 15.065-6.746l0.062-0.003h13.498c116.364 0 271.593 82.851 403.084 214.342v0c193.629 192.931 268.8 420.771 171.055 519.68-4.461 4.431-9.246 8.552-14.31 12.317l-0.352 0.25c-56.785 45.615-156.393 74.705-262.284 74.705-120.785 0-226.211-37.469-299.055-104.96-3.732-2.568-7.001-5.245-10.031-8.168l0.023 0.022c-14.515-14.28-23.508-34.133-23.508-56.087s8.994-41.807 23.498-56.077l0.011-0.010c14.231-14.209 33.879-22.996 55.579-22.996 9.27 0 18.166 1.604 26.425 4.549l-0.55-0.171-15.127-14.662zM251.811 47.942c-60.656-2.027-118.18-12.262-172.515-29.631l4.486 1.238c16.054 49.902 26.136 107.459 27.906 167.104l0.022 0.925c49.906 2.879 95.535 18.985 134.087 44.829l-0.967-0.611 50.269-50.502c-25.142-37.704-41.292-83.362-44.411-132.561l-0.040-0.792zM359.331 183.855l-110.545 110.778c-1.862 99.142 69.818 236.218 183.622 356.771l281.6-282.996c-119.156-113.804-254.138-184.553-352.815-184.553h-2.793zM746.589 401.455l-281.135 282.996c116.364 112.64 253.905 184.553 352.116 184.553 2.215 0.153 4.801 0.241 7.407 0.241 29.534 0 56.447-11.228 76.701-29.648l-0.093 0.083c74.24-74.473 3.025-271.825-154.996-438.225v0zM381.44 767.767c-5.705 5.724-9.232 13.621-9.232 22.342s3.527 16.618 9.232 22.343l-0.001-0.001h1.396l2.56 2.327c5.627 4.759 12.964 7.652 20.978 7.652 9.098 0 17.325-3.729 23.236-9.742l0.004-0.005c6.156-5.862 9.984-14.12 9.984-23.273s-3.828-17.41-9.971-23.26l-0.013-0.012c-6.043-5.763-14.244-9.309-23.273-9.309s-17.23 3.546-23.286 9.322l0.013-0.013zM461.265 846.895c-5.49 5.182-11.773 9.608-18.632 13.059l-0.452 0.206c60.199 33.579 132.063 53.35 208.544 53.35 2.448 0 4.891-0.020 7.33-0.061l-0.368 0.005c30.782-0.047 60.898-2.754 90.172-7.904l-3.132 0.456c-103.392-30.273-192.71-80.823-267.381-147.443l0.675 0.592c4.204 9.304 6.653 20.173 6.653 31.613 0 21.875-8.955 41.658-23.4 55.883l-0.010 0.010zM791.273 845.265c-69.818-7.447-162.909-55.622-254.138-132.422-5.153-4.304-8.407-10.732-8.407-17.92 0-12.869 10.433-23.302 23.302-23.302 5.681 0 10.888 2.033 14.931 5.412l-0.037-0.030c84.015 69.818 169.891 116.364 229.236 121.949 11.829 1.278 20.957 11.21 20.957 23.273 0 12.924-10.477 23.401-23.401 23.401-0.861 0-1.711-0.046-2.547-0.137l0.104 0.009zM435.898 581.12c-4.005 3.356-9.214 5.394-14.898 5.394-7.189 0-13.617-3.26-17.886-8.382l-0.030-0.037c-51.183-58.466-92.462-127.156-120.256-202.38l-1.46-4.514c-0.656-2.051-1.033-4.411-1.033-6.858 0-10.398 6.819-19.203 16.229-22.188l0.165-0.045c1.049-0.168 2.259-0.263 3.491-0.263s2.442 0.096 3.622 0.28l-0.131-0.017c0.318-0.016 0.69-0.024 1.064-0.024 10.369 0 19.154 6.781 22.163 16.15l0.046 0.165c27.307 73.645 65.645 137.066 113.691 191.748l-0.585-0.679c3.356 4.005 5.394 9.214 5.394 14.898 0 7.189-3.26 13.617-8.382 17.886l-0.037 0.030z" />
<glyph unicode="&#xe906;" glyph-name="des-inkpen" horiz-adv-x="1026" d="M23.315-64c6.369 0.028 12.131 2.605 16.322 6.763l-0.002-0.002c50.128 49.428 181.625 69.945 228.022 73.209 12.049 0.996 21.45 11.020 21.45 23.24 0 0.026 0 0.053 0 0.079v-0.004c-0.019 1.101-0.029 2.401-0.029 3.703 0 45.031 12.766 87.081 34.877 122.727l-0.575-0.995c2.887-1.475 6.297-2.34 9.909-2.34s7.022 0.865 10.035 2.398l-0.126-0.058c97.457 45.231 239.679 154.113 370.477 284.211 155.512 152.714 312.189 349.727 312.189 442.987 0.044 0.832 0.069 1.805 0.069 2.785 0 15.131-5.981 28.865-15.707 38.967l0.017-0.018c-69.945 69.945-416.408-6.062-559.563-146.419-14.638-14.392-23.708-34.406-23.708-56.539s9.071-42.147 23.697-56.528l0.011-0.011c14.566-14.412 34.608-23.315 56.728-23.315 0.056 0 0.113 0 0.169 0h-0.009c9.14 0.143 17.857 1.754 25.99 4.606l-0.577-0.176-14.922-14.455c-130.098-129.399-240.379-269.29-286.543-365.348-1.328-2.841-2.103-6.168-2.103-9.676s0.775-6.835 2.163-9.82l-0.060 0.144c-35.408-21.257-78.131-33.829-123.791-33.829-1.152 0-2.302 0.008-3.451 0.024l0.174-0.002c-0.022 0-0.048 0-0.075 0-12.22 0-22.244-9.401-23.235-21.366l-0.006-0.084c-3.497-46.63-23.315-175.097-74.142-224.758-4.402-4.247-7.135-10.198-7.135-16.787 0-12.877 10.439-23.315 23.315-23.315 0.050 0 0.099 0 0.149 0h-0.008zM697.122 497.661l-128.233 126.601c229.188 221.027 389.829 294.703 408.714 276.284 1.104-1.955 1.754-4.293 1.754-6.782 0-0.65-0.044-1.29-0.13-1.917l0.008 0.073c0-54.791-98.856-209.836-282.113-394.259v0zM484.488 707.497c-6.048 5.929-9.797 14.184-9.797 23.315s3.749 17.386 9.792 23.31l0.005 0.005c6.217 6.086 14.735 9.841 24.131 9.841s17.915-3.755 24.137-9.847l-0.006 0.006c6.048-5.929 9.797-14.184 9.797-23.315s-3.749-17.386-9.792-23.31l-0.005-0.005c-6.217-6.086-14.735-9.841-24.131-9.841s-17.915 3.755-24.137 9.847l0.006-0.006zM565.392 787.235c-5.618 5.402-12.071 9.993-19.134 13.55l-0.451 0.206c91.131 54.665 197.953 93.995 312.006 111.308l4.847 0.605c-105.8-62.94-197.432-132.312-280.588-210.588l0.806 0.752c3.537 8.633 5.59 18.653 5.59 29.152 0 21.99-9.007 41.876-23.533 56.171l-0.010 0.010zM536.248 591.388l128.233-126.368c-116.576-112.379-238.047-206.339-326.412-251.337l-2.098 2.098-55.024 54.324c45.464 85.566 141.056 206.805 255.301 321.282v0zM125.202 176.146c51.84 2.791 99.322 19.281 139.534 45.879l-1.042-0.648 25.18-24.714c-26.414-38.377-43.379-85.12-46.59-135.601l-0.040-0.792c-57.154-6.539-109.222-19.088-158.612-37.189l4.732 1.517c16.969 43.943 29.904 95.155 36.512 148.329l0.326 3.219z" />
<glyph unicode="&#xe907;" glyph-name="des-protractor" horiz-adv-x="884" d="M884.364 238.545c0 12.853-10.42 23.273-23.273 23.273v0h-125.673l-193.396 383.302c10.292 16.797 16.425 37.112 16.524 58.852v0.028c0 0.007 0 0.015 0 0.024 0 56.028-39.597 102.807-92.333 113.879l-0.758 0.133v118.691c0 12.853-10.42 23.273-23.273 23.273s-23.273-10.42-23.273-23.273v0-118.691c-53.494-11.206-93.091-57.985-93.091-114.013 0-0.008 0-0.017 0-0.025v0.001c0.099-21.768 6.231-42.083 16.81-59.384l-0.286 0.504-193.396-383.302h-125.673c-12.853 0-23.273-10.42-23.273-23.273s10.42-23.273 23.273-23.273v0h102.167l-29.789-59.345c-1.592-3.044-2.536-6.645-2.56-10.465v-186.19c-0.005-0.185-0.008-0.403-0.008-0.622 0-10.957 7.572-20.146 17.769-22.618l0.159-0.033h5.353c9.006 0.028 16.806 5.168 20.652 12.669l0.061 0.131 133.353 266.473h148.48v-69.818c0-12.853 10.42-23.273 23.273-23.273s23.273 10.42 23.273 23.273v0 69.818h148.48l133.12-266.473c3.918-7.653 11.749-12.801 20.783-12.801 0.057 0 0.114 0 0.171 0.001h5.344c10.356 2.505 17.928 11.694 17.928 22.651 0 0.219-0.003 0.437-0.009 0.654l0.001-0.032v186.182c-0.024 3.827-0.968 7.429-2.621 10.601l0.061-0.129-29.789 59.345h102.167c12.853 0 23.273 10.42 23.273 23.273v0 0zM442.182 773.818c38.56 0 69.818-31.259 69.818-69.818s-31.259-69.818-69.818-69.818c-38.56 0-69.818 31.259-69.818 69.818v0c0 38.56 31.259 69.818 69.818 69.818v0 0zM139.636 139.869l236.451 468.713c9.027-6.244 19.448-11.39 30.594-14.903l0.824-0.224-267.869-535.505v81.92zM465.455 261.818v69.818c0 12.853-10.42 23.273-23.273 23.273s-23.273-10.42-23.273-23.273v0-69.818h-125.207l148.48 296.96 148.48-296.96h-125.207zM744.727 57.949l-267.869 535.273c11.965 3.662 22.39 8.733 31.822 15.154l-0.404-0.26 236.451-468.247v-82.153z" />
<glyph unicode="&#xe908;" glyph-name="apple" horiz-adv-x="896" d="M672 725.080c-88.86 0-136-44.44-205.84-43.52-69.82-0.9-116.98 43.52-205.84 43.52-70.72 0-160.52-43.52-201.32-107.020-75.26-116-68-242.18-36.28-372.76 34.46-138.8 156-309.3 252-309.3 78.88 0 114.26 42.66 191.34 42.66s111.62-42.66 189.64-42.66c88.84 0 194.94 146 240.3 275.76-87.060 34.46-146 120.62-146 212.22 0 90.7 46.26 160.52 117 200.42-43.54 58.98-127 100.68-195 100.68v0zM648.42 960c-127.84-13.6-223.040-120.62-214.88-242.16 127.84 12.7 222.16 120.62 214.88 242.16v0z" />
<glyph unicode="&#xe909;" glyph-name="play-market" horiz-adv-x="982" d="M74.568-62.566c5.005-0.676 10.79-1.062 16.665-1.062 25.001 0 48.369 6.989 68.258 19.119l-0.578-0.328 542.57 292.013-157.869 156.435zM21.249 924.15c-13.467-20.663-21.476-45.952-21.476-73.112 0-1.796 0.035-3.583 0.104-5.362l-0.008 0.256v-795.213c-0.064-1.565-0.101-3.401-0.101-5.246 0-26.526 7.56-51.286 20.642-72.244l-0.335 0.576 478.432 475.303zM700.439 650.258l-541.397 290.579c-19.459 11.776-42.969 18.745-68.106 18.745-4.985 0-9.907-0.274-14.75-0.808l0.597 0.053 466.829-464.613zM760.146 278.724l156.435 84.345c87.473 47.061 87.473 124.105 0 171.036l-157.478 84.475-170.254-169.472z" />
<glyph unicode="&#xe90a;" glyph-name="des-pen-pot" horiz-adv-x="838" d="M93.091 471.273v-418.909c0-64.266 52.098-116.364 116.364-116.364v0h418.909c64.266 0 116.364 52.098 116.364 116.364v0 418.909c0 12.853-10.42 23.273-23.273 23.273v0h-29.091l7.215 15.127c0.556 0.682 1.093 1.442 1.578 2.237l0.051 0.090c0.014 0.278 0.022 0.603 0.022 0.931s-0.008 0.653-0.024 0.976l0.002-0.046 34.909 72.145v1.629s0 0 0 1.396l35.607 73.076s0 0 0 0l56.32 115.898c5.133 8.723 8.165 19.216 8.165 30.417 0 23.259-13.073 43.465-32.273 53.671l-0.328 0.159-109.149 53.993c-7.755 3.855-16.89 6.11-26.552 6.11-23.917 0-44.605-13.822-54.512-33.914l-0.159-0.356-101.004-209.455v258.095c0 12.853-10.42 23.273-23.273 23.273v0h-163.142c-51.413 0-93.091-41.678-93.091-93.091v0-116.364c0-12.853 10.42-23.273 23.273-23.273s23.273 10.42 23.273 23.273v0 116.364c0 25.706 20.839 46.545 46.545 46.545v0-418.909h-8.844l-133.585 271.127-33.047 67.258c-10.453 20.057-31.090 33.516-54.87 33.516-9.302 0-18.124-2.060-26.033-5.748l0.379 0.159-35.142-17.222c-14.717-7.002-25.937-19.358-31.288-34.487l-0.13-0.422c-2.188-5.95-3.453-12.822-3.453-19.989 0-9.678 2.307-18.817 6.402-26.896l-0.156 0.34 133.585-267.636h-23.273c-12.853 0-23.273-10.42-23.273-23.273v0 0zM698.182 52.364c0-38.56-31.259-69.818-69.818-69.818v0h-418.909c-38.56 0-69.818 31.259-69.818 69.818v0 395.636h558.545v-395.636zM655.127 866.909c2.165 5.405 7.36 9.153 13.43 9.153 2.313 0 4.498-0.544 6.435-1.511l-0.084 0.038 108.218-54.225c4.875-2.318 8.186-7.203 8.186-12.861 0-2.265-0.53-4.406-1.474-6.305l0.037 0.083-10.24-21.178-81.455 39.098c-3.109 1.644-6.795 2.609-10.707 2.609-12.853 0-23.273-10.42-23.273-23.273 0-9.397 5.569-17.493 13.587-21.168l0.145-0.060 80.524-38.865-15.593-34.444-81.455 39.331c-2.804 1.292-6.084 2.045-9.54 2.045-12.853 0-23.273-10.42-23.273-23.273 0-8.941 5.042-16.705 12.439-20.602l80.418-38.694-16.291-33.745-82.153 39.796c-2.804 1.292-6.084 2.045-9.54 2.045-12.853 0-23.273-10.42-23.273-23.273 0-8.941 5.042-16.705 12.439-20.602l0.127-0.061 83.084-39.331-16.524-33.745-83.084 40.262c-3.109 1.644-6.795 2.609-10.707 2.609-12.853 0-23.273-10.42-23.273-23.273 0-9.397 5.569-17.493 13.587-21.168l0.145-0.060 83.084-40.262-8.378-17.455h-128.698v77.964l143.127 294.4zM465.455 727.273h-93.091v186.182h93.091v-186.182zM372.364 680.727h93.091v-186.182h-93.091v186.182zM46.545 794.531c1.319 3.639 3.975 6.523 7.36 8.109l0.087 0.037 34.211 16.291c1.914 0.96 4.171 1.522 6.559 1.522 5.721 0 10.689-3.225 13.184-7.957l0.039-0.081 23.273-46.545-61.44-28.16-23.273 46.545c-0.65 1.512-1.028 3.272-1.028 5.12s0.378 3.608 1.061 5.207l-0.033-0.087zM90.764 696.087l60.276 28.625 114.036-230.167h-74.473l-99.142 201.542z" />
<glyph unicode="&#xe90b;" glyph-name="des-ruler-fat" d="M641.164 953.251c-4.207 4.182-10.005 6.768-16.407 6.768s-12.201-2.585-16.408-6.769l-601.599-601.599c-4.182-4.207-6.768-10.005-6.768-16.407s2.585-12.201 6.769-16.408l376.086-376.086c4.207-4.182 10.005-6.768 16.407-6.768s12.201 2.585 16.408 6.769l-0.001-0.001c1.313 1.739 2.414 3.74 3.206 5.89l0.052 0.161c8.844 10.938 48.407 51.665 105.891 109.382v0l186.182 186.182 94.255 93.091 94.487 93.091 113.571 111.476c4.252 4.218 6.884 10.064 6.884 16.524s-2.632 12.305-6.883 16.522l-0.002 0.002-372.131 378.182zM887.156 481.745l-208.291 208.291c-4.297 5.063-10.665 8.255-17.779 8.255-12.853 0-23.273-10.42-23.273-23.273 0-6.998 3.088-13.274 7.977-17.54l0.028-0.024 207.825-207.825-62.371-60.975-113.338 113.338c-4.294 4.993-10.618 8.135-17.677 8.135-12.853 0-23.273-10.42-23.273-23.273 0-7.058 3.142-13.383 8.104-17.651l0.031-0.026 114.036-114.269-60.975-59.578-206.895 206.895c-4.043 3.478-9.343 5.596-15.138 5.596-12.853 0-23.273-10.42-23.273-23.273 0-5.795 2.118-11.095 5.622-15.169l-0.026 0.031 206.196-207.593-61.44-60.742-112.407 112.407c-4.043 3.478-9.343 5.596-15.138 5.596-12.853 0-23.273-10.42-23.273-23.273 0-5.795 2.118-11.095 5.622-15.169l-0.026 0.031 112.175-111.942-60.975-61.207-206.662 206.662c-4.043 3.478-9.343 5.596-15.138 5.596-12.853 0-23.273-10.42-23.273-23.273 0-5.795 2.118-11.095 5.622-15.169l-0.026 0.031 206.895-205.731c-39.331-40.029-63.535-65.396-77.964-81.687l-342.575 341.178 568.785 568.785 342.807-343.040-80.524-79.127z" />
<glyph unicode="&#xe90c;" glyph-name="ios-alarms" horiz-adv-x="1031" d="M937.085 397.749c0.001 0.265 0.001 0.578 0.001 0.892 0 232.892-188.796 421.688-421.688 421.688s-421.688-188.796-421.688-421.688c0-120.104 50.211-228.481 130.787-305.284l0.169-0.16-124.164-123.93 33.032-33.032 126.741 126.507c69.806-54.041 158.6-86.627 255.004-86.627s185.198 32.586 255.967 87.343l-0.963-0.716 126.741-126.507 33.032 33.032-123.695 123.93c80.581 76.707 130.704 184.775 130.723 304.549v0.004zM140.563 397.749c0 207.015 167.819 374.834 374.834 374.834s374.834-167.819 374.834-374.834c0-207.015-167.819-374.834-374.834-374.834v0c-207.015 0-374.834 167.819-374.834 374.834v0 0zM515.397 397.749h-187.417v-46.854h234.271v327.98h-46.854v-281.126zM37.015 630.38l321.42 268.006-23.427 17.805c-34.615 27.312-78.869 43.808-126.975 43.809v0c-114.893 0-208.033-93.14-208.033-208.033v0c-0.002-0.367-0.004-0.801-0.004-1.236 0-34.836 8.67-67.647 23.97-96.393l-0.539 1.109 13.353-25.77zM208.033 913.146c26.704-0.035 51.863-6.616 73.969-18.224l-0.876 0.419-227.477-189.994c-4.371 13.95-6.89 29.991-6.89 46.62 0 89.017 72.162 161.179 161.179 161.179 0.034 0 0.067 0 0.101 0h-0.005zM822.995 960c-0.208 0.001-0.453 0.001-0.698 0.001-48.108 0-92.363-16.497-127.417-44.142l-22.99-17.472 322.123-268.006 13.353 25.067c15.055 28.049 23.9 61.369 23.9 96.755 0 114.764-93.035 207.799-207.799 207.799-0.166 0-0.332 0-0.498-0.001h0.026zM977.146 705.347l-227.477 189.994c21.271 11.219 46.486 17.805 73.24 17.805 0.031 0 0.061 0 0.092 0h-0.005c88.957-0.079 161.040-72.211 161.040-161.179 0-16.629-2.518-32.67-7.194-47.762l0.305 1.142z" />
<glyph unicode="&#xe90d;" glyph-name="sec-shield-cross" horiz-adv-x="791" d="M387.724-62.604c2.354-0.878 5.074-1.386 7.913-1.386s5.559 0.508 8.074 1.439l-0.161-0.052c90.996 32.582 387.724 167.796 387.724 533.876v325.818c0 12.853-10.42 23.273-23.273 23.273v0c-162.909 0-294.167 84.247-357.935 134.516-0.937 0.661-2.006 1.282-3.128 1.807l-0.13 0.055-2.793 1.396c-2.465 1.083-5.329 1.758-8.339 1.861l-0.039 0.001c-2.945-0.055-5.737-0.648-8.302-1.685l0.156 0.056-2.793-1.396c-1.258-0.594-2.326-1.214-3.336-1.913l0.078 0.051c-64-50.502-195.258-134.749-358.167-134.749-12.853 0-23.273-10.42-23.273-23.273v0-325.818c0-366.080 296.727-501.295 387.724-533.876v0zM46.545 448h325.818v-454.516c-102.865 44.218-314.182 169.658-325.818 454.516v0zM418.909-6.516v454.516h325.818c-11.636-284.858-222.953-410.298-325.818-454.516v0zM744.727 494.545h-325.818v395.636c91.027-65.565 202.76-107.904 323.844-116.255l1.974-0.109v-279.273zM372.364 890.182v-395.636h-325.818v279.273c123.056 8.472 234.787 50.809 327.704 117.654l-1.886-1.291z" />
<glyph unicode="&#xe90e;" glyph-name="doc-pen-sign" horiz-adv-x="1026" d="M289.341 39.053c-0.023 1.216-0.036 2.65-0.036 4.087 0 44.904 12.771 86.825 34.879 122.33l-0.57-0.981c2.86-1.418 6.219-2.272 9.772-2.331h0.020c0.037 0 0.081 0 0.125 0 3.505 0 6.829 0.773 9.811 2.159l-0.144-0.060c97.457 45.698 239.679 154.579 370.477 284.678v0c155.512 152.947 312.189 349.727 312.189 442.987 0.044 0.832 0.069 1.805 0.069 2.785 0 15.131-5.981 28.865-15.707 38.967l0.017-0.018c-69.945 69.945-416.408-6.062-559.563-146.419-14.638-14.392-23.708-34.406-23.708-56.539s9.071-42.147 23.697-56.528l0.011-0.011c14.566-14.412 34.608-23.315 56.728-23.315 0.056 0 0.113 0 0.169 0h-0.009c9.137 0.13 17.856 1.742 25.985 4.605l-0.571-0.175-14.922-14.455c-130.098-129.399-240.379-269.29-286.543-365.348-1.361-2.872-2.156-6.239-2.156-9.792s0.795-6.921 2.216-9.934l-0.060 0.142c-35.244-21.261-77.802-33.84-123.299-33.84-1.407 0-2.811 0.012-4.212 0.036l0.211-0.003c-0.022 0-0.048 0-0.075 0-12.22 0-22.244-9.401-23.235-21.366l-0.006-0.084c-3.497-46.63-23.315-175.097-73.909-224.758-4.327-4.238-7.009-10.141-7.009-16.67 0-12.884 10.445-23.329 23.329-23.329 6.355 0 12.117 2.541 16.325 6.663l-0.004-0.004c50.128 49.428 181.625 69.945 228.022 73.209 12.049 0.996 21.45 11.020 21.45 23.24 0 0.026 0 0.053 0 0.079v-0.004zM697.122 497.661l-128.233 126.601c229.188 221.027 389.829 294.703 408.714 276.284 1.104-1.955 1.754-4.293 1.754-6.782 0-0.65-0.044-1.29-0.13-1.917l0.008 0.073c0-54.791-98.856-209.836-282.113-394.259v0zM484.488 707.497c-6.048 5.929-9.797 14.184-9.797 23.315s3.749 17.386 9.792 23.31l0.005 0.005c6.204 6.018 14.676 9.728 24.015 9.728s17.811-3.71 24.023-9.736l-0.009 0.008c6.048-5.929 9.797-14.184 9.797-23.315s-3.749-17.386-9.792-23.31l-0.005-0.005c-6.18-6.072-14.659-9.82-24.015-9.82s-17.835 3.748-24.020 9.825l0.005-0.005zM565.392 787.235c-5.618 5.402-12.071 9.993-19.134 13.55l-0.451 0.206c91.128 54.682 197.954 94.014 312.013 111.309l4.839 0.603c-105.78-63.266-197.413-133.012-280.509-211.685l0.728 0.683c3.496 8.587 5.525 18.551 5.525 28.987 0 22.073-9.075 42.026-23.697 56.332l-0.014 0.014zM536.248 591.388l128.233-126.368c-116.576-112.379-238.047-206.339-326.412-251.337l-56.889 56.189c45.231 85.8 140.823 207.038 255.067 321.515v0zM89.297 24.597c16.698 43.994 29.324 95.249 35.607 148.446l0.298 3.102c51.84 2.791 99.322 19.281 139.534 45.879l-1.042-0.648 25.18-24.714c-26.414-38.377-43.379-85.12-46.59-135.601l-0.040-0.792c-57.163-6.559-109.229-19.107-158.627-37.192l4.747 1.52zM1002.55-17.37h-223.359c15.767 18.992 25.944 43.131 27.725 69.572l0.020 0.374c0 25.413 0 93.26-61.086 93.26s-60.852-69.945-60.852-93.26c1.612-25.833 10.095-49.402 23.623-69.258l-0.308 0.478c-2.157-0.734-4.641-1.16-7.225-1.166h-85.103c-6.901 0.341-13.279 2.287-18.86 5.471l0.207-0.109c24.215 27.568 39.728 63.309 41.947 102.605l0.020 0.448c0 37.304 0 124.736-79.738 124.736s-79.738-87.432-79.738-124.736c3.418-40.306 20.562-76.065 46.677-103.102l-0.047 0.049c-6.761-3.383-14.729-5.363-23.16-5.363-0.055 0-0.109 0-0.163 0h-246.666c-12.877 0-23.315-10.439-23.315-23.315s10.439-23.315 23.315-23.315v0h246.674c22.094 0.612 42.382 7.857 59.076 19.804l-0.322-0.219c15.058-11.254 33.753-18.428 54.061-19.573l0.264-0.012h85.1c14.942 0.478 28.732 5.019 40.415 12.546l-0.313-0.189c9.709-7.357 21.885-11.934 35.109-12.355l0.097-0.002h225.923c12.877 0 23.315 10.439 23.315 23.315s-10.439 23.315-23.315 23.315v0 0zM561.428 17.603c-18.996 19.212-31.8 44.584-35.149 72.853l-0.057 0.589c0 72.044 15.621 78.106 33.107 78.106s33.107-5.829 33.107-78.106c-2.368-28.406-13.8-53.767-31.357-73.574l0.115 0.132zM744.452 14.106c-7.048 10.933-11.607 24.081-12.576 38.216l-0.014 0.254c0 46.63 9.326 46.63 14.222 46.63s14.455 0 14.455-46.63c-1.504-14.756-7.239-27.945-15.956-38.599l0.102 0.129z" />
<glyph unicode="&#xe90f;" glyph-name="gen-jewel" d="M1022.138 666.065v1.862c-0.766 1.598-1.619 2.973-2.6 4.243l0.040-0.054-232.727 279.273c-2.022 2.016-4.414 3.662-7.065 4.829l-0.149 0.059-2.327 1.629c-2.731 1.276-5.924 2.043-9.291 2.094h-512.018c-3.462-0.017-6.741-0.787-9.685-2.154l0.144 0.060-2.327-1.629c-2.050-1.179-3.811-2.57-5.344-4.18l-0.009-0.010-232.727-279.273c-0.968-1.279-1.825-2.734-2.506-4.283l-0.054-0.139v-1.862c-1.71-2.588-2.937-5.649-3.473-8.942l-0.018-0.134s0 0 0-1.629c0.106-2.28 0.524-4.426 1.212-6.448l-0.048 0.164c0.456-1.096 0.924-2.014 1.451-2.892l-0.055 0.099c0.38-1.011 0.771-1.855 1.216-2.665l-0.053 0.105 488.727-698.182 1.396-1.396 3.258-3.025 1.862-1.396 3.956-1.862h1.862c1.912-0.635 4.113-1.002 6.4-1.002s4.488 0.366 6.548 1.044l-0.148-0.042h1.862l3.956 1.862 1.862 1.396 3.258 3.025 1.396 1.396 488.727 698.182c-5.004-12.087-4.147-10.251-3.291-8.413l5.851 13.999c1.147 1.74 2.098 3.748 2.75 5.886l0.043 0.165s0 0 0 1.629v0c-0.024 3.022-0.62 5.898-1.685 8.534l0.056-0.156zM734.72 634.182l-222.72-607.418-222.72 607.418h445.44zM308.829 680.727l203.171 221.556 203.171-221.556h-406.342zM744.727 717.265l-179.898 196.189h179.898v-196.189zM279.273 717.265v196.189h179.898l-179.898-196.189zM232.727 680.727h-159.884l159.884 191.767v-191.767zM239.709 634.182l188.975-515.258-360.727 515.258h171.753zM784.291 634.182h171.753l-360.727-515.258 188.975 515.258zM791.273 680.727v191.767l159.884-191.767h-159.884z" />
<glyph unicode="&#xe910;" glyph-name="ios-favorites" horiz-adv-x="1101" d="M550.511 960.741l-140.714-394.986h-409.797l348.081-232.054-143.182-397.701 345.612 229.585 345.612-229.832-143.182 397.948 348.081 232.054h-409.797l-140.714 394.986zM693.693 353.45l103.684-293.524-246.866 165.153-246.866-165.153 103.684 293.524-244.397 162.932h281.427l106.152 296.239 106.152-296.239h281.427l-244.397-162.932z" />
<glyph unicode="&#xe911;" glyph-name="mus-mute" horiz-adv-x="1126" d="M1008.896 448l109.824 109.824c3.826 4.447 6.156 10.277 6.156 16.652 0 14.138-11.462 25.6-25.6 25.6-6.374 0-12.204-2.33-16.685-6.184l0.034 0.028-109.824-109.824-109.824 109.824c-4.723 5.492-11.68 8.948-19.444 8.948-14.138 0-25.6-11.462-25.6-25.6 0-7.764 3.456-14.721 8.915-19.416l0.034-0.028 109.824-109.824-109.824-109.824c-5.492-4.723-8.948-11.68-8.948-19.444 0-14.138 11.462-25.6 25.6-25.6 7.764 0 14.721 3.456 19.416 8.915l0.028 0.034 109.824 109.824 109.824-109.824c4.447-3.826 10.277-6.156 16.652-6.156 14.138 0 25.6 11.462 25.6 25.6 0 6.374-2.33 12.204-6.184 16.685l0.028-0.034zM597.248-64c-14.646 0.019-28.167 4.82-39.089 12.925l0.177-0.125-337.408 294.4h-144.128c-1.929-0.187-4.171-0.294-6.438-0.294-39.022 0-70.656 31.634-70.656 70.656 0 2.267 0.107 4.508 0.315 6.721l-0.022-0.283v256c-0.187 1.929-0.294 4.171-0.294 6.438 0 39.022 31.634 70.656 70.656 70.656 2.267 0 4.508-0.107 6.721-0.315l-0.283 0.022h144.128l335.616 293.12c11.11 8.732 25.284 14.023 40.691 14.080h0.013c0.945 0.049 2.053 0.077 3.166 0.077 34.819 0 63.272-27.261 65.178-61.604l0.007-0.169v-900.608c-1.914-34.512-30.366-61.773-65.186-61.773-1.114 0-2.221 0.028-3.321 0.083l0.155-0.006zM716.8 592.128v-288.256c31.874 39.016 51.188 89.381 51.188 144.256s-19.313 105.24-51.513 144.667l0.326-0.411z" />
<glyph unicode="&#xe912;" glyph-name="mus-pause" horiz-adv-x="910" d="M227.556-64h-113.778c-62.838 0-113.778 50.94-113.778 113.778v0 796.444c0 62.838 50.94 113.778 113.778 113.778v0h113.778c62.838 0 113.778-50.94 113.778-113.778v0-796.444c0-62.838-50.94-113.778-113.778-113.778v0zM796.444-64h-113.778c-62.838 0-113.778 50.94-113.778 113.778v0 796.444c0 62.838 50.94 113.778 113.778 113.778v0h113.778c62.838 0 113.778-50.94 113.778-113.778v0-796.444c0-62.838-50.94-113.778-113.778-113.778v0z" />
<glyph unicode="&#xe913;" glyph-name="mus-play" horiz-adv-x="791" d="M93.091-64c-51.413 0-93.091 41.678-93.091 93.091v0 837.818c0 51.413 41.678 93.091 93.091 93.091v0c20.024-0.417 38.5-6.707 53.868-17.209l-0.341 0.22 605.091-418.909c24.778-16.98 40.824-45.132 40.824-77.033s-16.046-60.053-40.506-76.827l-0.317-0.205-604.393-416.582c-15.192-10.531-33.91-16.991-54.111-17.452l-0.115-0.002z" />
<glyph unicode="&#xe914;" glyph-name="mus-radio-mic" horiz-adv-x="512" d="M256 261.818c89.972 0 162.909 72.937 162.909 162.909v0 372.364c0 89.972-72.937 162.909-162.909 162.909s-162.909-72.937-162.909-162.909v0-372.364c0-89.972 72.937-162.909 162.909-162.909v0 0zM139.636 797.091c0 64.266 52.098 116.364 116.364 116.364s116.364-52.098 116.364-116.364v0-372.364c0-64.266-52.098-116.364-116.364-116.364s-116.364 52.098-116.364 116.364v0 372.364zM512 424.727v186.182c0 12.853-10.42 23.273-23.273 23.273s-23.273-10.42-23.273-23.273v0-186.182c0-115.679-93.776-209.455-209.455-209.455s-209.455 93.776-209.455 209.455v0 186.182c0 12.853-10.42 23.273-23.273 23.273s-23.273-10.42-23.273-23.273v0-186.182c0.056-133.147 101.751-242.525 231.705-254.759l1.022-0.078v-187.345h-69.818c-12.853 0-23.273-10.42-23.273-23.273s10.42-23.273 23.273-23.273v0h186.182c12.853 0 23.273 10.42 23.273 23.273s-10.42 23.273-23.273 23.273v0h-69.818v187.345c130.977 12.311 232.672 121.689 232.727 254.831v0.006z" />
<glyph unicode="&#xe915;" glyph-name="mus-vol-high" horiz-adv-x="1075" d="M597.248-64c-14.646 0.019-28.167 4.82-39.089 12.925l0.177-0.125-337.408 294.4h-144.128c-1.929-0.187-4.171-0.294-6.438-0.294-39.022 0-70.656 31.634-70.656 70.656 0 2.267 0.107 4.508 0.315 6.721l-0.022-0.283v256c-0.187 1.929-0.294 4.171-0.294 6.438 0 39.022 31.634 70.656 70.656 70.656 2.267 0 4.508-0.107 6.721-0.315l-0.283 0.022h144.128l335.616 293.12c11.11 8.732 25.284 14.023 40.691 14.080h0.013c0.945 0.049 2.053 0.077 3.166 0.077 34.819 0 63.272-27.261 65.178-61.604l0.007-0.169v-900.608c-1.914-34.512-30.366-61.773-65.186-61.773-1.114 0-2.221 0.028-3.321 0.083l0.155-0.006zM716.8 592.128v-288.256c31.874 39.016 51.188 89.381 51.188 144.256s-19.313 105.24-51.513 144.667l0.326-0.411zM896 67.84c-14.101 0.050-25.512 11.492-25.512 25.6 0 7.366 3.111 14.005 8.090 18.675l0.014 0.013c89.633 84.272 145.458 203.617 145.458 336s-55.825 251.728-145.218 335.777l-0.24 0.223c-4.986 4.687-8.091 11.325-8.091 18.688 0 14.154 11.474 25.627 25.627 25.627 6.79 0 12.964-2.641 17.549-6.952l-0.013 0.012c99.619-93.639 161.665-226.262 161.665-373.376s-62.046-279.737-161.398-373.127l-0.268-0.249c-4.565-4.282-10.724-6.913-17.497-6.913-0.059 0-0.117 0-0.176 0.001h0.009zM742.4 140.8c-14.11 0.038-25.534 11.485-25.534 25.6 0 8.976 4.62 16.874 11.612 21.444l0.098 0.060c85.757 55.453 141.712 150.6 141.712 258.816s-55.955 203.363-140.51 258.087l-1.202 0.729c-7.771 4.493-12.915 12.764-12.915 22.237 0 14.138 11.462 25.6 25.6 25.6 5.619 0 10.815-1.81 15.037-4.88l-0.074 0.051c100.050-64.695 165.331-175.7 165.331-301.952s-65.281-237.257-163.929-301.102l-1.402-0.85c-3.833-2.411-8.494-3.842-13.489-3.842-0.118 0-0.235 0.001-0.353 0.002h0.018z" />
<glyph unicode="&#xe916;" glyph-name="pre-satchel" horiz-adv-x="1126" d="M1100.8 806.4h-1075.2c-14.138 0-25.6-11.462-25.6-25.6v0-358.4c0-14.138 11.462-25.6 25.6-25.6v0h25.6v-435.2c0-14.138 11.462-25.6 25.6-25.6v0h972.8c14.138 0 25.6 11.462 25.6 25.6v0 435.2h25.6c14.138 0 25.6 11.462 25.6 25.6v0 358.4c0 14.138-11.462 25.6-25.6 25.6v0 0zM1024-12.8h-921.6v409.6h153.6v-76.8c0-14.138 11.462-25.6 25.6-25.6s25.6 11.462 25.6 25.6v0 76.8h512v-76.8c0-14.138 11.462-25.6 25.6-25.6s25.6 11.462 25.6 25.6v0 76.8h153.6v-409.6zM1075.2 448h-204.8v76.8c0 14.138-11.462 25.6-25.6 25.6s-25.6-11.462-25.6-25.6v0-76.8h-512v76.8c0 14.138-11.462 25.6-25.6 25.6s-25.6-11.462-25.6-25.6v0-76.8h-204.8v307.2h1024v-307.2zM358.4 857.6c0-14.138 11.462-25.6 25.6-25.6s25.6 11.462 25.6 25.6v0c0 28.277 22.923 51.2 51.2 51.2v0h204.8c28.277 0 51.2-22.923 51.2-51.2v0c0-14.138 11.462-25.6 25.6-25.6s25.6 11.462 25.6 25.6v0c0 56.554-45.846 102.4-102.4 102.4v0h-204.8c-56.554 0-102.4-45.846-102.4-102.4v0 0z" />
<glyph unicode="&#xe917;" glyph-name="cha-rect-smiley" d="M97.524 131.048h97.524v-170.667c0.052-10.076 6.207-18.701 14.956-22.371l0.161-0.060c2.73-1.195 5.909-1.909 9.249-1.95h0.016c0.042 0 0.091 0 0.141 0 6.698 0 12.765 2.701 17.171 7.072l-0.002-0.002 187.733 187.977h502.004c53.861 0 97.524 43.663 97.524 97.524v0 633.905c0 53.861-43.663 97.524-97.524 97.524v0h-828.952c-53.861 0-97.524-43.663-97.524-97.524v0-633.905c0-53.861 43.663-97.524 97.524-97.524v0 0zM48.762 862.476c0 26.93 21.831 48.762 48.762 48.762v0h828.952c26.93 0 48.762-21.831 48.762-48.762v0-633.905c0-26.93-21.831-48.762-48.762-48.762v0h-512c-0.042 0-0.091 0-0.141 0-6.698 0-12.765-2.701-17.171-7.072l0.002 0.002-153.356-153.6v136.29c0 13.465-10.916 24.381-24.381 24.381v0h-121.905c-26.93 0-48.762 21.831-48.762 48.762v0 633.905zM593.92 369.25c-6.132-4.483-10.070-11.651-10.070-19.739 0-13.465 10.916-24.381 24.381-24.381 6.445 0 12.307 2.501 16.666 6.586l-0.013-0.012c4.632 3.657 106.545 89.234 106.545 213.821s-102.156 210.164-106.301 213.821c-3.963 2.901-8.933 4.642-14.311 4.642-13.465 0-24.381-10.916-24.381-24.381 0-7.020 2.967-13.347 7.715-17.795l0.013-0.012s88.503-74.85 88.503-176.274-87.771-175.543-88.747-176.274v0zM365.714 618.667c40.396 0 73.143 32.747 73.143 73.143s-32.747 73.143-73.143 73.143c-40.396 0-73.143-32.747-73.143-73.143v0c0-40.396 32.747-73.143 73.143-73.143v0 0zM365.714 716.19c13.465 0 24.381-10.916 24.381-24.381s-10.916-24.381-24.381-24.381c-13.465 0-24.381 10.916-24.381 24.381v0c0 13.465 10.916 24.381 24.381 24.381v0 0zM365.714 326.095c40.396 0 73.143 32.747 73.143 73.143s-32.747 73.143-73.143 73.143c-40.396 0-73.143-32.747-73.143-73.143v0c0-40.396 32.747-73.143 73.143-73.143v0 0zM365.714 423.619c13.465 0 24.381-10.916 24.381-24.381s-10.916-24.381-24.381-24.381c-13.465 0-24.381 10.916-24.381 24.381v0c0 13.465 10.916 24.381 24.381 24.381v0 0z" />
<glyph unicode="&#xe918;" glyph-name="des-magnify-fat" d="M700.044 960c-0.265 0.001-0.579 0.001-0.893 0.001-178.531 0-323.258-144.728-323.258-323.258 0-62.51 17.743-120.876 48.467-170.337l-0.796 1.375-41.425-41.425c-14.541 4.669-31.269 7.36-48.626 7.36-45.354 0-86.415-18.376-116.146-48.088l0.001 0.001-169.193-170.356c-29.78-29.78-48.199-70.921-48.199-116.364 0-90.886 73.677-164.563 164.563-164.563 45.443 0 86.584 18.419 116.364 48.199l169.193 169.193c29.727 29.768 48.111 70.87 48.111 116.265 0 17.397-2.7 34.164-7.704 49.904l0.32-1.165 41.425 41.425c47.54-28.944 105.032-46.078 166.526-46.078 178.916 0 323.956 145.040 323.956 323.956 0 178.47-144.317 323.232-322.618 323.954h-0.069zM416.582 186.182l-169.193-169.193c-20.913-19.323-48.979-31.173-79.813-31.173-65.037 0-117.76 52.723-117.76 117.76 0 30.834 11.851 58.901 31.246 79.893l-0.072-0.079 169.193 169.193c20.913 19.323 48.979 31.173 79.813 31.173 65.037 0 117.76-52.723 117.76-117.76 0-30.834-11.851-58.901-31.246-79.893l0.072 0.079zM468.713 362.356c-11.508 16.696-25.581 30.695-41.807 41.77l-0.549 0.354 23.273 23.273c12.961-15.529 26.827-29.396 41.839-41.936l0.517-0.42-23.273-23.273zM700.044 358.4c-153.21 0-277.411 124.201-277.411 277.411s124.201 277.411 277.411 277.411c153.128 0 277.278-124.068 277.411-277.165v-0.013c-0.132-153.203-124.226-277.379-277.385-277.644h-0.026zM698.182 866.909c-128.532 0-232.727-104.196-232.727-232.727v0c0-12.853 10.42-23.273 23.273-23.273s23.273 10.42 23.273 23.273v0c0 102.825 83.356 186.182 186.182 186.182v0c12.853 0 23.273 10.42 23.273 23.273s-10.42 23.273-23.273 23.273v0 0z" />
<glyph unicode="&#xe919;" glyph-name="des-pencil-fat" d="M495.476 650.705l-302.545-302.545c-4.993-4.294-8.135-10.618-8.135-17.677 0-12.853 10.42-23.273 23.273-23.273 7.058 0 13.383 3.142 17.651 8.104l0.026 0.031 302.545 302.545c3.478 4.043 5.596 9.343 5.596 15.138 0 12.853-10.42 23.273-23.273 23.273-5.795 0-11.095-2.118-15.169-5.622l0.031 0.026zM787.549 931.375c-17.962 17.661-42.617 28.565-69.818 28.565s-51.856-10.904-69.832-28.579l0.014 0.014-129.862-134.284-512-520.611c-4.149-4.182-6.721-9.933-6.749-16.286v-300.921c0-12.853 10.42-23.273 23.273-23.273v0h301.382c6.358 0.028 12.109 2.6 16.292 6.751l-0.002-0.002 519.447 515.258 134.982 138.24c18.111 17.756 29.338 42.476 29.338 69.818s-11.227 52.063-29.322 69.803l-0.016 0.016-207.127 195.258zM162.909 75.636h116.364v-93.091h-98.676l-134.051 134.051v98.676h93.091v-116.364c0-12.853 10.42-23.273 23.273-23.273v0 0zM46.545 50.735l68.189-68.189h-68.189v68.189zM325.818-6.284v105.193c0 12.853-10.42 23.273-23.273 23.273v0h-116.364v116.364c0 12.853-10.42 23.273-23.273 23.273v0h-105.193l477.556 485.702 274.851-272.989-484.305-480.582zM961.862 629.295l-118.924-121.716-275.549 273.455 113.105 116.364c9.548 9.489 22.707 15.354 37.236 15.354s27.688-5.865 37.239-15.357l-0.003 0.003 207.127-195.258c9.537-9.308 15.452-22.291 15.452-36.655s-5.915-27.346-15.442-36.644l-0.010-0.010z" />
<glyph unicode="&#xe91a;" glyph-name="des-pencil" d="M922.764 936.727c-14.151 14.37-33.817 23.273-55.563 23.273-0.021 0-0.042 0-0.062 0h0.003c-21.763-0.011-41.444-8.91-55.614-23.264l-65.172-65.172-587.404-586.473c-1.75-1.725-3.225-3.72-4.361-5.921l-0.061-0.13-152.204-309.527c-1.526-3.013-2.419-6.568-2.419-10.332 0-12.853 10.42-23.273 23.273-23.273 3.764 0 7.319 0.894 10.465 2.48l-0.133-0.061 308.596 152.204c2.694 1.111 5.006 2.602 6.998 4.437l-0.016-0.015 33.978 33.978 617.658 618.589c14.235 14.235 23.039 33.9 23.039 55.622s-8.804 41.387-23.039 55.622l-77.964 77.964zM256 122.182h44.916l-168.262-83.084-29.556 29.556 72.378 146.618h57.251v-69.818c0-12.853 10.42-23.273 23.273-23.273v0 0zM81.455 24.669l7.215-7.215-14.196-6.982 6.982 14.196zM356.305 168.727h-77.033v69.818c0 12.853-10.42 23.273-23.273 23.273v0h-53.76l560.64 560.64 123.578-123.578-530.153-530.153zM968.145 780.567l-48.873-48.873-123.578 123.578 48.873 48.64c5.768 5.757 13.73 9.318 22.524 9.318 0.263 0 0.525-0.003 0.787-0.010l-0.039 0.001c0.251 0.007 0.546 0.011 0.842 0.011 8.765 0 16.698-3.563 22.429-9.319l0.001-0.001 77.033-77.964c5.857-5.784 9.485-13.814 9.485-22.691s-3.628-16.907-9.482-22.688l-0.003-0.003z" />
<glyph unicode="&#xe91b;" glyph-name="doc-lever-arch" horiz-adv-x="986" d="M18.963-64h265.481c10.473 0 18.963 8.49 18.963 18.963v0 986.074c0 10.473-8.49 18.963-18.963 18.963v0h-265.481c-10.473 0-18.963-8.49-18.963-18.963v0-986.074c0-10.473 8.49-18.963 18.963-18.963v0 0zM265.481 466.963h-227.556v341.333h227.556v-341.333zM37.926-26.074v455.111h227.556v-455.111h-227.556zM265.481 922.074v-75.852h-227.556v75.852h227.556zM94.815 694.519h113.778c10.473 0 18.963 8.49 18.963 18.963s-8.49 18.963-18.963 18.963v0h-113.778c-10.473 0-18.963-8.49-18.963-18.963s8.49-18.963 18.963-18.963v0 0zM94.815 618.667h113.778c10.473 0 18.963 8.49 18.963 18.963s-8.49 18.963-18.963 18.963v0h-113.778c-10.473 0-18.963-8.49-18.963-18.963s8.49-18.963 18.963-18.963v0 0zM208.593 580.741h-113.778c-10.473 0-18.963-8.49-18.963-18.963s8.49-18.963 18.963-18.963v0h113.778c10.473 0 18.963 8.49 18.963 18.963s-8.49 18.963-18.963 18.963v0 0zM151.704 201.481c-41.892 0-75.852-33.96-75.852-75.852s33.96-75.852 75.852-75.852c41.892 0 75.852 33.96 75.852 75.852v0c0 41.892-33.96 75.852-75.852 75.852v0 0zM151.704 87.704c-20.946 0-37.926 16.98-37.926 37.926s16.98 37.926 37.926 37.926c20.946 0 37.926-16.98 37.926-37.926v0c0-20.946-16.98-37.926-37.926-37.926v0 0zM360.296 960c-10.473 0-18.963-8.49-18.963-18.963v0-986.074c0-10.473 8.49-18.963 18.963-18.963v0h265.481c10.473 0 18.963 8.49 18.963 18.963v0 986.074c0 10.473-8.49 18.963-18.963 18.963v0h-265.481zM379.259 808.296h227.556v-341.333h-227.556v341.333zM606.815 922.074v-75.852h-227.556v75.852h227.556zM379.259-26.074v455.111h227.556v-455.111h-227.556zM436.148 694.519h113.778c10.473 0 18.963 8.49 18.963 18.963s-8.49 18.963-18.963 18.963v0h-113.778c-10.473 0-18.963-8.49-18.963-18.963s8.49-18.963 18.963-18.963v0 0zM549.926 656.593h-113.778c-10.473 0-18.963-8.49-18.963-18.963s8.49-18.963 18.963-18.963v0h113.778c10.473 0 18.963 8.49 18.963 18.963s-8.49 18.963-18.963 18.963v0 0zM549.926 580.741h-113.778c-10.473 0-18.963-8.49-18.963-18.963s8.49-18.963 18.963-18.963v0h113.778c10.473 0 18.963 8.49 18.963 18.963s-8.49 18.963-18.963 18.963v0 0zM493.037 201.481c-41.892 0-75.852-33.96-75.852-75.852s33.96-75.852 75.852-75.852c41.892 0 75.852 33.96 75.852 75.852v0c0 41.892-33.96 75.852-75.852 75.852v0 0zM493.037 87.704c-20.946 0-37.926 16.98-37.926 37.926s16.98 37.926 37.926 37.926c20.946 0 37.926-16.98 37.926-37.926v0c0-20.946-16.98-37.926-37.926-37.926v0 0zM967.111 960h-265.481c-10.473 0-18.963-8.49-18.963-18.963v0-986.074c0-10.473 8.49-18.963 18.963-18.963v0h265.481c10.473 0 18.963 8.49 18.963 18.963v0 986.074c0 10.473-8.49 18.963-18.963 18.963v0 0zM720.593 808.296h227.556v-341.333h-227.556v341.333zM948.148 922.074v-75.852h-227.556v75.852h227.556zM720.593-26.074v455.111h227.556v-455.111h-227.556zM777.481 694.519h113.778c10.473 0 18.963 8.49 18.963 18.963s-8.49 18.963-18.963 18.963v0h-113.778c-10.473 0-18.963-8.49-18.963-18.963s8.49-18.963 18.963-18.963v0 0zM891.259 656.593h-113.778c-10.473 0-18.963-8.49-18.963-18.963s8.49-18.963 18.963-18.963v0h113.778c10.473 0 18.963 8.49 18.963 18.963s-8.49 18.963-18.963 18.963v0 0zM891.259 580.741h-113.778c-10.473 0-18.963-8.49-18.963-18.963s8.49-18.963 18.963-18.963v0h113.778c10.473 0 18.963 8.49 18.963 18.963s-8.49 18.963-18.963 18.963v0 0zM834.37 201.481c-41.892 0-75.852-33.96-75.852-75.852s33.96-75.852 75.852-75.852c41.892 0 75.852 33.96 75.852 75.852v0c0 41.892-33.96 75.852-75.852 75.852v0 0zM834.37 87.704c-20.946 0-37.926 16.98-37.926 37.926s16.98 37.926 37.926 37.926c20.946 0 37.926-16.98 37.926-37.926v0c0-20.946-16.98-37.926-37.926-37.926v0 0z" />
<glyph unicode="&#xe91c;" glyph-name="emo-crying" d="M512 308.364c-0.948 0.013-2.067 0.021-3.188 0.021-102.921 0-191.052-63.326-227.553-153.141l-0.591-1.644c-0.942-2.432-1.488-5.246-1.488-8.187 0-9.962 6.259-18.461 15.058-21.782l0.16-0.053c2.363-0.885 5.093-1.397 7.942-1.397 0.071 0 0.143 0 0.214 0.001h-0.011c0.022 0 0.049 0 0.076 0 9.927 0 18.403 6.216 21.747 14.968l0.054 0.16c30.214 73.627 101.348 124.535 184.373 124.535 1.127 0 2.251-0.009 3.374-0.028l-0.169 0.002c0.953 0.016 2.078 0.026 3.205 0.026 83.025 0 154.159-50.908 183.891-123.212l0.482-1.323c3.702-8.243 11.839-13.88 21.293-13.88 12.853 0 23.273 10.42 23.273 23.273 0 2.462-0.382 4.835-1.091 7.063l0.045-0.165c-37.092 91.456-125.222 154.781-228.142 154.781-1.039 0-2.077-0.006-3.113-0.019l0.157 0.002zM465.455 610.909v46.545c0 12.853-10.42 23.273-23.273 23.273s-23.273-10.42-23.273-23.273v0-46.545c0-38.56-31.259-69.818-69.818-69.818s-69.818 31.259-69.818 69.818v0 46.545c0 12.853-10.42 23.273-23.273 23.273s-23.273-10.42-23.273-23.273v0-46.545c0-64.266 52.098-116.364 116.364-116.364s116.364 52.098 116.364 116.364v0 0zM791.273 657.455c0 12.853-10.42 23.273-23.273 23.273s-23.273-10.42-23.273-23.273v0-46.545c0-38.56-31.259-69.818-69.818-69.818s-69.818 31.259-69.818 69.818v0 46.545c0 12.853-10.42 23.273-23.273 23.273s-23.273-10.42-23.273-23.273v0-46.545c0-64.266 52.098-116.364 116.364-116.364s116.364 52.098 116.364 116.364v0 46.545zM512 960c-282.77 0-512-229.23-512-512s229.23-512 512-512c282.77 0 512 229.23 512 512v0c0 282.77-229.23 512-512 512v0 0zM512-17.455c-257.063 0-465.455 208.391-465.455 465.455s208.391 465.455 465.455 465.455c257.063 0 465.455-208.391 465.455-465.455v0c0-257.063-208.391-465.455-465.455-465.455v0 0zM222.255 515.258c-26.714-15.619-46.921-39.898-56.98-68.919l-0.271-0.899c-1.104-2.614-1.746-5.654-1.746-8.844 0-12.853 10.42-23.273 23.273-23.273 9.664 0 17.952 5.89 21.47 14.276l0.057 0.153c6.083 19.64 18.6 35.78 35.041 46.345l0.334 0.201c7.926 3.824 13.297 11.798 13.297 21.026 0 12.853-10.42 23.273-23.273 23.273-4.109 0-7.97-1.065-11.32-2.934l0.118 0.061zM170.356 383.069c-0.9 0.123-1.939 0.194-2.995 0.194-11.773 0-21.503-8.741-23.057-20.087l-0.014-0.121c-2.998-21.141-4.709-45.56-4.709-70.379 0-2.666 0.020-5.328 0.059-7.985l-0.005 0.401c0-12.853 10.42-23.273 23.273-23.273v0 0c12.853 0 23.273 10.42 23.273 23.273v0c-0.029 2.003-0.046 4.369-0.046 6.738 0 22.735 1.539 45.11 4.519 67.027l-0.284-2.55c0.123 0.9 0.194 1.939 0.194 2.995 0 11.773-8.741 21.503-20.087 23.057l-0.121 0.014zM801.745 515.258c-3.233 1.808-7.093 2.873-11.202 2.873-12.853 0-23.273-10.42-23.273-23.273 0-9.228 5.371-17.202 13.158-20.966l0.139-0.061c16.761-10.78 29.272-26.914 35.214-45.949l0.161-0.597c3.56-8.504 11.793-14.38 21.405-14.429h0.006c3.203 0.040 6.237 0.721 8.994 1.92l-0.15-0.058c8.571 3.561 14.489 11.865 14.489 21.551 0 3.136-0.62 6.128-1.745 8.858l0.056-0.155c-10.349 29.909-30.551 54.183-56.647 69.491l-0.604 0.327zM833.629 357.004c2.704-19.314 4.248-41.627 4.248-64.3 0-2.676-0.022-5.348-0.064-8.014l0.005 0.402c0-12.853 10.42-23.273 23.273-23.273v0 0c12.853 0 23.273 10.42 23.273 23.273v0c0.043 2.501 0.067 5.451 0.067 8.407 0 24.857-1.716 49.314-5.036 73.257l0.315-2.77c-1.603 11.548-11.411 20.342-23.273 20.342-12.97 0-23.484-10.514-23.484-23.484 0-1.108 0.077-2.198 0.225-3.265l-0.014 0.123z" />
<glyph unicode="&#xe91d;" glyph-name="emo-smiley" d="M512 960c-282.77 0-512-229.23-512-512s229.23-512 512-512c282.77 0 512 229.23 512 512v0c0 282.77-229.23 512-512 512v0 0zM512-17.455c-257.063 0-465.455 208.391-465.455 465.455s208.391 465.455 465.455 465.455c257.063 0 465.455-208.391 465.455-465.455v0c0-257.063-208.391-465.455-465.455-465.455v0 0zM372.364 448c52.131 0 93.091 61.44 93.091 139.636s-40.96 139.636-93.091 139.636-93.091-61.44-93.091-139.636 40.96-139.636 93.091-139.636v0zM372.364 680.727c21.876 0 46.545-39.796 46.545-93.091s-24.669-93.091-46.545-93.091-46.545 39.796-46.545 93.091 24.669 93.091 46.545 93.091v0zM651.636 448c52.131 0 93.091 61.44 93.091 139.636s-40.96 139.636-93.091 139.636-93.091-61.44-93.091-139.636 40.96-139.636 93.091-139.636v0zM651.636 680.727c21.876 0 46.545-39.796 46.545-93.091s-24.669-93.091-46.545-93.091-46.545 39.796-46.545 93.091 24.669 93.091 46.545 93.091v0zM791.273 328.378c0.146 0.979 0.229 2.11 0.229 3.259 0 12.853-10.42 23.273-23.273 23.273-0.081 0-0.161 0-0.242-0.001h-511.988c-0.068 0.001-0.149 0.001-0.229 0.001-12.853 0-23.273-10.42-23.273-23.273 0-1.15 0.083-2.28 0.244-3.385l-0.015 0.126c5.117-36.735 16.16-69.93 32.203-100.059l-0.785 1.615c47.041-91.278 140.091-152.924 247.669-154.296l0.185-0.002c107.265 1.409 199.933 62.526 246.417 151.578l0.74 1.557c15.618 28.834 26.907 62.421 31.933 98.021l0.183 1.586zM740.073 308.364c-4.478-17.859-10.135-33.355-17.177-48.061l0.654 1.516h-422.865c-6.375 13.183-12.032 28.678-16.144 44.791l-0.38 1.755h455.68zM512 122.182c-74.827 0.931-141.032 37.032-182.965 92.505l-0.424 0.586h366.778c-42.357-56.059-108.562-92.16-183.24-93.089l-0.149-0.001z" />
<glyph unicode="&#xe91e;" glyph-name="fin-piggy-bank-coin" horiz-adv-x="1182" d="M796.16 744.369c1.651-0.5 3.549-0.788 5.514-0.788 8.911 0 16.439 5.919 18.869 14.039l0.036 0.139c4.124 13.406 6.498 28.816 6.498 44.78 0 87.006-70.532 157.538-157.538 157.538s-157.538-70.532-157.538-157.538c0-15.965 2.375-31.375 6.79-45.896l-0.292 1.116c2.523-8.168 10.006-13.999 18.851-13.999 0.296 0 0.59 0.007 0.882 0.019l-0.042-0.001c0.858-0.132 1.848-0.208 2.855-0.208s1.997 0.076 2.964 0.222l-0.109-0.013c8.167 2.524 13.997 10.006 13.997 18.851 0 1.985-0.294 3.901-0.84 5.707l0.036-0.139c-3.062 10.006-4.825 21.506-4.825 33.419 0 65.255 52.899 118.154 118.154 118.154s118.154-52.899 118.154-118.154c0-11.912-1.763-23.413-5.042-34.255l0.217 0.837c-0.5-1.651-0.788-3.549-0.788-5.514 0-8.911 5.919-16.439 14.039-18.869l0.139-0.036zM945.231 448c0-21.752-17.633-39.385-39.385-39.385s-39.385 17.633-39.385 39.385c0 21.752 17.633 39.385 39.385 39.385s39.385-17.633 39.385-39.385zM1122.462 487.385h-81.526c-17.733 43.85-42.373 81.384-72.966 113.143l0.104-0.109 99.643 99.84c1.185 1.098 2.224 2.325 3.105 3.667l0.046 0.075c2.359 3.207 3.775 7.235 3.775 11.594 0 6.435-3.086 12.149-7.86 15.742l-0.050 0.036c-28.331 20.058-63.599 32.063-101.671 32.063-56.722 0-107.22-26.646-139.66-68.104l-0.293-0.389c-45.74 18.199-98.743 28.753-154.21 28.753-0.478 0-0.955-0.001-1.432-0.002h0.073c-202.437 0-369.428-137.846-391.286-315.077h-61.637c-0.029 0-0.064 0-0.098 0-6.935 0-13.703 0.717-20.234 2.081l0.64-0.112c24.354 24.842 39.385 58.902 39.385 96.472 0 0.007 0 0.014 0 0.021v-0.001c0 54.351-35.249 98.462-78.769 98.462s-78.769-44.111-78.769-98.462c0-0.006 0-0.013 0-0.020 0-37.571 15.031-71.631 39.407-96.495l-0.022 0.023c-5.89-1.252-12.658-1.969-19.594-1.969-0.035 0-0.069 0-0.104 0h0.005c-32.492 0-59.077 35.249-59.077 78.769 0 10.876-8.817 19.692-19.692 19.692s-19.692-8.817-19.692-19.692v0c0-65.182 44.111-118.154 98.462-118.154 21.477 0.030 41.793 4.967 59.897 13.75l-0.82-0.359c17.284-8.423 37.601-13.36 59.067-13.391h59.087c0.636-93.919 39.986-178.524 102.871-238.754l0.12-0.114-24.222-131.938c-0.626-3.079-0.984-6.617-0.984-10.24 0-12.883 4.532-24.708 12.089-33.968l-0.077 0.097c9.733-11.247 24.028-18.32 39.976-18.32 0.277 0 0.553 0.002 0.829 0.006l-0.042-0.001h59.077c32.923 0.477 60.192 24.097 66.293 55.296l0.071 0.433 7.877 42.732c38.868-12.463 83.58-19.646 129.969-19.646s91.101 7.183 133.084 20.499l-3.114-0.852 7.877-42.732c6.098-31.313 32.864-54.775 65.279-55.727l0.1-0.002h59.077c0.234-0.004 0.511-0.006 0.787-0.006 15.947 0 30.242 7.073 39.919 18.253l0.056 0.067c7.968 9.32 12.818 21.514 12.818 34.84 0 3.276-0.293 6.483-0.854 9.597l0.049-0.327-23.237 131.742c33.749 33.477 60.722 73.727 78.719 118.548l0.838 2.363h81.526c32.627 0 59.077 26.45 59.077 59.077v0 118.154c0 32.627-26.45 59.077-59.077 59.077v0 0zM157.538 428.308c-24.022 18.154-39.385 46.668-39.385 78.769v0c0 32.098 18.117 59.077 39.385 59.077s39.385-26.978 39.385-59.077c0-32.102-15.363-60.615-39.137-78.59l-0.248-0.179zM1142.154 310.154c0-10.876-8.817-19.692-19.692-19.692v0h-95.311c-0.015 0-0.033 0-0.051 0-8.621 0-15.947-5.539-18.615-13.252l-0.042-0.138c-17.852-49.637-46.255-91.733-82.683-125.239l-0.221-0.201c-3.839-3.602-6.23-8.708-6.23-14.372 0-1.254 0.117-2.481 0.341-3.67l-0.019 0.122 25.6-141.982c0.244-0.99 0.383-2.127 0.383-3.297 0-3.292-1.107-6.326-2.968-8.749l0.025 0.034c-2.425-2.681-5.916-4.359-9.799-4.359-0.294 0-0.585 0.010-0.874 0.029l0.039-0.002h-59.077c-12.926 1.199-23.362 10.567-26.153 22.842l-0.038 0.198-11.618 65.575c-1.379 9.646-9.586 16.98-19.505 16.98-2.997 0-5.839-0.67-8.382-1.868l0.12 0.051c-40.969-15.634-88.35-24.687-137.846-24.687s-96.877 9.053-140.578 25.595l2.732-0.908c-2.557 1.3-5.576 2.062-8.773 2.062-9.656 0-17.688-6.95-19.369-16.12l-0.018-0.121-11.225-66.56c-2.807-12.415-13.15-21.758-25.87-23.030l-0.123-0.010h-59.077c-0.25-0.017-0.541-0.026-0.835-0.026-3.883 0-7.374 1.678-9.789 4.347l-0.010 0.011c-1.929 2.425-3.095 5.532-3.095 8.911 0 1.099 0.123 2.169 0.357 3.197l-0.018-0.096 25.403 141.194c0.437 1.548 0.689 3.326 0.689 5.163 0 5.745-2.46 10.916-6.385 14.516l-0.015 0.013c-59.693 53.546-97.389 130.575-98.46 216.425l-0.002 0.19c0 173.686 159.114 315.077 354.462 315.077 0.52 0.003 1.134 0.004 1.749 0.004 55.314 0 107.919-11.594 155.52-32.485l-2.487 0.973c2.304-1.023 4.991-1.618 7.817-1.618 6.944 0 13.048 3.594 16.555 9.024l0.047 0.077c24.884 38.475 67.575 63.579 116.129 63.579 21.029 0 40.958-4.709 58.79-13.13l-0.84 0.357-97.28-96.689c-3.718-3.587-6.026-8.613-6.026-14.178s2.309-10.591 6.020-14.173l0.006-0.006c36.277-33.611 64.405-75.495 81.434-122.684l0.683-2.166c2.758-7.764 10.041-13.224 18.6-13.224 0.384 0 0.766 0.011 1.145 0.033l-0.052-0.002h95.114c10.876 0 19.692-8.817 19.692-19.692v0-118.154z" />
<glyph unicode="&#xe91f;" glyph-name="sho-gift" horiz-adv-x="948" d="M872.296 770.37h-67.129c17.485 19.903 28.154 46.169 28.154 74.926 0 62.838-50.94 113.778-113.778 113.778-30.598 0-58.374-12.078-78.823-31.727l0.038 0.036-166.684-150.376-166.116 149.807c-20.462 19.877-48.421 32.133-79.243 32.133-62.838 0-113.778-50.94-113.778-113.778 0-28.698 10.625-54.915 28.156-74.931l-0.112 0.131h-67.129c-41.892 0-75.852-33.96-75.852-75.852v0-132.741c0-10.473 8.49-18.963 18.963-18.963v0h18.963v-530.963c0-41.892 33.96-75.852 75.852-75.852v0h720.593c41.892 0 75.852 33.96 75.852 75.852v0 530.963h18.963c10.473 0 18.963 8.49 18.963 18.963v0 132.741c0 41.892-33.96 75.852-75.852 75.852v0 0zM666.927 899.887c13.908 13.346 32.827 21.564 53.665 21.564s39.757-8.218 53.692-21.59l-0.027 0.025c13.744-13.729 22.246-32.704 22.246-53.665 0-41.892-33.96-75.852-75.852-75.852-0.021 0-0.042 0-0.063 0h-197.212l143.55 129.517zM173.89 792.557c-14.328 13.818-23.226 33.183-23.226 54.627 0 41.892 33.96 75.852 75.852 75.852 21.774 0 41.404-9.174 55.238-23.868l0.036-0.039 142.981-128.759h-197.215c-0.018 0-0.039 0-0.060 0-20.931 0-39.882 8.478-53.606 22.187l0.001-0.001zM37.926 694.519c0 20.946 16.98 37.926 37.926 37.926v0h379.259v-151.704h-417.185v113.778zM75.852 11.852v530.963h379.259v-568.889h-341.333c-20.946 0-37.926 16.98-37.926 37.926v0 0zM872.296 11.852c0-20.946-16.98-37.926-37.926-37.926v0h-341.333v568.889h379.259v-530.963zM910.222 580.741h-417.185v151.704h379.259c20.946 0 37.926-16.98 37.926-37.926v0-113.778z" />
<glyph unicode="&#xe920;" glyph-name="sho-wallet-coins" horiz-adv-x="914" d="M640 301.714c-30.297 0-54.857-24.56-54.857-54.857s24.56-54.857 54.857-54.857c30.297 0 54.857 24.56 54.857 54.857v0c0 30.297-24.56 54.857-54.857 54.857v0 0zM640 228.571c-10.099 0-18.286 8.187-18.286 18.286s8.187 18.286 18.286 18.286c10.099 0 18.286-8.187 18.286-18.286v0c0-10.099-8.187-18.286-18.286-18.286v0 0zM109.714-64h621.714c60.594 0 109.714 49.121 109.714 109.714v0 74.971c42.031 8.804 73.143 45.56 73.143 89.581 0 0.007 0 0.013 0 0.020v-0.001 219.429c0 0.006 0 0.012 0 0.019 0 44.022-31.112 80.777-72.547 89.477l-0.595 0.105v1.829c0 60.594-49.121 109.714-109.714 109.714v0h-256c0 80.791-65.494 146.286-146.286 146.286s-146.286-65.494-146.286-146.286v0h-73.143c-60.594 0-109.714-49.121-109.714-109.714v0-475.429c0-60.594 49.121-109.714 109.714-109.714v0 0zM822.857 155.429h-182.857c-50.495 0-91.429 40.934-91.429 91.429s40.934 91.429 91.429 91.429v0h182.857c20.686 0 39.767 6.87 55.087 18.452l-0.23-0.167v-146.286c0-30.297-24.56-54.857-54.857-54.857v0 0zM877.714 429.714c-0.069-23.68-15.131-43.825-36.189-51.445l-0.382-0.121v103.131c21.441-7.741 36.503-27.885 36.571-51.557v-0.008zM731.429 594.286c36.975-0.166 67.459-27.741 72.188-63.445l0.040-0.372c-19.176 16.891-44.494 27.211-72.221 27.246h-275.756c6.231 10.524 11.364 22.692 14.768 35.563l0.227 1.009h260.754zM329.143 740.571c60.498-0.126 109.493-49.198 109.493-109.714 0-28.149-10.601-53.823-28.029-73.246l0.090 0.102h-163.109c-17.466 19.203-28.16 44.837-28.16 72.968 0 0.061 0 0.123 0 0.184v-0.009c0 60.594 49.121 109.714 109.714 109.714v0 0zM36.571 521.143c0 40.396 32.747 73.143 73.143 73.143v0h77.897c3.614-13.877 8.749-26.046 15.359-37.24l-0.365 0.668h-111.177c-10.099 0-18.286-8.187-18.286-18.286s8.187-18.286 18.286-18.286v0h640c40.396 0 73.143-32.747 73.143-73.143v0-73.143h-164.571c-70.692 0-128-57.308-128-128s57.308-128 128-128v0h164.571v-73.143c0-40.396-32.747-73.143-73.143-73.143v0h-621.714c-40.396 0-73.143 32.747-73.143 73.143v0 475.429zM585.143 667.429c80.791 0 146.286 65.494 146.286 146.286s-65.494 146.286-146.286 146.286c-80.791 0-146.286-65.494-146.286-146.286v0c0-80.791 65.494-146.286 146.286-146.286v0 0zM585.143 923.429c60.594 0 109.714-49.121 109.714-109.714s-49.121-109.714-109.714-109.714c-60.594 0-109.714 49.121-109.714 109.714v0c0 60.594 49.121 109.714 109.714 109.714v0 0z" />
<glyph unicode="&#xe921;" glyph-name="magnifier" horiz-adv-x="1020" d="M1007.787-51.627c-7.712-7.668-18.343-12.407-30.080-12.407s-22.368 4.74-30.082 12.409l0.002-0.002-326.4 328.96c-64.035-52.535-146.603-84.62-236.644-85.332l-0.156-0.001c-0.477-0.002-1.042-0.003-1.607-0.003-212.077 0-384 171.923-384 384s171.923 384 384 384c212.077 0 384-171.923 384-384 0-90.862-31.558-174.353-84.311-240.11l0.585 0.754 326.4-327.68c7.299-7.643 11.791-18.021 11.791-29.448 0-12.272-5.181-23.334-13.475-31.118l-0.023-0.021zM384.427 874.667c-164.949 0-298.667-133.718-298.667-298.667s133.718-298.667 298.667-298.667c164.949 0 298.667 133.718 298.667 298.667v0c0 164.949-133.718 298.667-298.667 298.667v0z" />
<glyph unicode="&#xe922;" glyph-name="fin-card-front-back" d="M77.498-40.727h729.367c42.748 0.132 77.366 34.75 77.498 77.486v450.108c-0.132 42.748-34.75 77.366-77.486 77.498h-729.38c-42.748-0.132-77.366-34.75-77.498-77.486v-450.108c0.132-42.748 34.75-77.366 77.486-77.498h0.013zM46.545 486.865c0 17.095 13.858 30.953 30.953 30.953v0h729.367c17.095 0 30.953-13.858 30.953-30.953v0-450.095c0-17.095-13.858-30.953-30.953-30.953v0h-729.367c-17.095 0-30.953 13.858-30.953 30.953v0 450.095zM152.669 238.545h160.349c32.296 1.356 58.119 27.26 59.342 59.464l0.003 0.114v113.804c-1.356 32.296-27.26 58.119-59.464 59.342l-0.114 0.003h-160.116c-32.318-1.226-58.222-27.049-59.574-59.22l-0.004-0.125v-113.804c1.234-32.396 27.182-58.344 59.463-59.575l0.115-0.003zM139.636 298.124v33.513h93.091v-46.545h-80.058c-6.625 1.267-11.766 6.407-13.016 12.931l-0.016 0.102zM325.818 411.927v-113.804c-1.267-6.625-6.407-11.766-12.931-13.016l-0.102-0.016h-33.513v139.636h33.513c6.535-1.295 11.621-6.303 13.013-12.691l0.020-0.109zM152.669 424.727h80.058v-46.545h-93.091v33.513c1.328 6.594 6.439 11.705 12.927 13.015l0.106 0.018zM116.364 98.909h93.091c12.853 0 23.273 10.42 23.273 23.273s-10.42 23.273-23.273 23.273v0h-93.091c-12.853 0-23.273-10.42-23.273-23.273s10.42-23.273 23.273-23.273v0 0zM279.273 122.182c0-12.853 10.42-23.273 23.273-23.273v0h93.091c12.853 0 23.273 10.42 23.273 23.273s-10.42 23.273-23.273 23.273v0h-93.091c-12.853 0-23.273-10.42-23.273-23.273v0 0zM488.727 98.909h93.091c12.853 0 23.273 10.42 23.273 23.273s-10.42 23.273-23.273 23.273v0h-93.091c-12.853 0-23.273-10.42-23.273-23.273s10.42-23.273 23.273-23.273v0 0zM674.909 98.909h93.091c12.853 0 23.273 10.42 23.273 23.273s-10.42 23.273-23.273 23.273v0h-93.091c-12.853 0-23.273-10.42-23.273-23.273s10.42-23.273 23.273-23.273v0 0zM804.771 762.647v0l-151.738 150.807c-13.602 14.163-32.622 23.035-53.716 23.272h-0.044c-0.181 0.002-0.395 0.002-0.61 0.002-20.543 0-39.155-8.266-52.692-21.653l0.007 0.007-282.531-263.913c-5.274-4.301-8.615-10.799-8.615-18.077 0-12.853 10.42-23.273 23.273-23.273 6.698 0 12.735 2.83 16.981 7.358l0.012 0.013 283.229 264.378c5.299 5.31 12.62 8.598 20.71 8.611h0.002c0.056 0 0.122 0.001 0.188 0.001 8.109 0 15.449-3.291 20.757-8.611l26.066-26.066-219.695-204.335c-5.274-4.301-8.615-10.799-8.615-18.077 0-12.853 10.42-23.273 23.273-23.273 6.698 0 12.735 2.83 16.981 7.358l0.012 0.013 221.091 205.498 76.102-76.102-96.582-95.884c-4.249-4.22-6.879-10.065-6.879-16.524 0-12.86 10.425-23.286 23.286-23.286 6.401 0 12.199 2.583 16.409 6.763l-0.001-0.001 96.815 95.884 180.596-180.596c5.453-5.33 8.835-12.759 8.835-20.978 0-7.508-2.822-14.357-7.463-19.545l0.025 0.028-30.953-26.531c-5-4.294-8.147-10.623-8.147-17.687 0-12.854 10.42-23.274 23.274-23.274 5.79 0 11.086 2.114 15.158 5.613l-0.031-0.026 31.185 27.462c13.741 13.767 22.238 32.771 22.238 53.76s-8.497 39.994-22.239 53.761l0.001-0.001-195.956 197.12z" />
<glyph unicode="&#xe923;" glyph-name="fin-notes-coins" d="M1011.665 450.793c7.452 3.98 12.437 11.706 12.437 20.596s-4.985 16.616-12.312 20.535l-0.125 0.061-370.735 186.182c-3.108 1.644-6.794 2.608-10.705 2.608s-7.597-0.965-10.833-2.669l0.127 0.061-606.72-325.818c-7.452-3.98-12.437-11.706-12.437-20.596s4.985-16.616 12.312-20.535l0.125-0.061 370.735-186.182c3.108-1.644 6.794-2.608 10.705-2.608s7.597 0.965 10.833 2.669l-0.127-0.061 153.6 82.385v-40.96l-162.909-87.971-361.891 181.062c-3.050 1.566-6.654 2.485-10.473 2.485-12.876 0-23.314-10.438-23.314-23.314 0-9.057 5.165-16.908 12.709-20.768l0.132-0.061 372.364-186.182c3.108-1.644 6.794-2.608 10.705-2.608s7.597 0.965 10.833 2.669l-0.127-0.061 151.971 81.92v-40.262l-162.909-87.971-361.891 181.062c-3.050 1.566-6.654 2.485-10.473 2.485-12.876 0-23.314-10.438-23.314-23.314 0-9.057 5.165-16.908 12.709-20.768l0.132-0.061 372.364-186.182c3.108-1.644 6.794-2.608 10.705-2.608s7.597 0.965 10.833 2.669l-0.127-0.061 605.091 325.818c7.331 4.015 12.218 11.677 12.218 20.48 0 12.853-10.42 23.273-23.273 23.273-4.050 0-7.859-1.035-11.176-2.854l0.121 0.061-151.738-81.455v40.029l173.847 93.091c7.331 4.015 12.218 11.677 12.218 20.48 0 12.853-10.42 23.273-23.273 23.273-4.050 0-7.859-1.035-11.176-2.854l0.121 0.061-151.738-80.989v40.495l173.847 93.091zM581.818 272.524l-320 160.582 182.691 97.978 319.767-160.582-182.458-97.978zM630.691 631.156l319.535-159.884-135.68-73.775-320 160.582 136.145 73.076zM393.775 171.753l-320 159.884 137.775 74.007 319.767-160.582-137.542-74.007zM791.273 198.749l-186.182-99.84v133.585l186.182 99.142v-133.585zM279.273 727.273c132.655 0 232.727 50.036 232.727 116.364s-100.073 116.364-232.727 116.364-232.727-50.036-232.727-116.364 100.073-116.364 232.727-116.364v0zM279.273 913.455c113.571 0 186.182-41.425 186.182-69.818s-72.611-69.818-186.182-69.818-186.182 41.425-186.182 69.818 72.611 69.818 186.182 69.818v0zM139.636 469.876c2.715-1.202 5.882-1.901 9.213-1.901 12.853 0 23.273 10.42 23.273 23.273 0 10.581-7.061 19.513-16.728 22.34l-0.165 0.041c-37.469 13.731-62.138 33.513-62.138 50.735 0 12.853-10.42 23.273-23.273 23.273s-23.273-10.42-23.273-23.273v0c0-38.865 34.211-73.309 93.091-94.487v0zM279.273 541.091c12.853 0 23.273 10.42 23.273 23.273s-10.42 23.273-23.273 23.273v0c-113.571 0-186.182 41.425-186.182 69.818 0 12.853-10.42 23.273-23.273 23.273s-23.273-10.42-23.273-23.273v0c0-66.327 100.073-116.364 232.727-116.364v0zM279.273 634.182c132.655 0 232.727 50.036 232.727 116.364 0 12.853-10.42 23.273-23.273 23.273s-23.273-10.42-23.273-23.273v0c0-28.393-72.611-69.818-186.182-69.818s-186.182 41.425-186.182 69.818c0 12.853-10.42 23.273-23.273 23.273s-23.273-10.42-23.273-23.273v0c0-66.327 100.073-116.364 232.727-116.364v0zM53.295 442.182c3.83-7.909 11.795-13.266 21.012-13.266 0.059 0 0.117 0 0.176 0.001h-0.009c0.037 0 0.081 0 0.125 0 3.498 0 6.817 0.772 9.793 2.155l-0.144-0.060c7.969 3.808 13.376 11.805 13.376 21.064 0 3.591-0.813 6.992-2.266 10.029l0.060-0.14c-1.4 2.708-2.252 5.901-2.327 9.285v0.024c0 12.853-10.42 23.273-23.273 23.273s-23.273-10.42-23.273-23.273v0c0.070-10.593 2.554-20.59 6.927-29.491l-0.177 0.4z" />
<glyph unicode="&#xe924;" glyph-name="fin-notes-machine" d="M209.455-64h605.091c12.853 0 23.273 10.42 23.273 23.273s-10.42 23.273-23.273 23.273v0h-605.091c-12.853 0-23.273-10.42-23.273-23.273s10.42-23.273 23.273-23.273v0 0zM209.455 29.091h605.091c12.853 0 23.273 10.42 23.273 23.273s-10.42 23.273-23.273 23.273v0h-605.091c-12.853 0-23.273-10.42-23.273-23.273s10.42-23.273 23.273-23.273v0 0zM651.636 587.636c0 77.119-62.517 139.636-139.636 139.636s-139.636-62.517-139.636-139.636c0-77.119 62.517-139.636 139.636-139.636v0c77.119 0 139.636 62.517 139.636 139.636v0 0zM512 494.545c-51.413 0-93.091 41.678-93.091 93.091s41.678 93.091 93.091 93.091c51.413 0 93.091-41.678 93.091-93.091v0c0-51.413-41.678-93.091-93.091-93.091v0 0zM721.455 354.909c-12.853 0-23.273-10.42-23.273-23.273v0-69.818h-69.818c-12.853 0-23.273-10.42-23.273-23.273s10.42-23.273 23.273-23.273v0h93.091c12.853 0 23.273 10.42 23.273 23.273v0 93.091c0 12.853-10.42 23.273-23.273 23.273v0 0zM395.636 261.818h-69.818v69.818c0 12.853-10.42 23.273-23.273 23.273s-23.273-10.42-23.273-23.273v0-93.091c0-12.853 10.42-23.273 23.273-23.273v0h93.091c12.853 0 23.273 10.42 23.273 23.273s-10.42 23.273-23.273 23.273v0 0zM907.636 960h-791.273c-63.899-0.904-115.459-52.465-116.363-116.278l-0.001-0.086v-93.091c0.904-63.899 52.465-115.459 116.278-116.363l0.086-0.001h69.818v-488.727c0-12.853 10.42-23.273 23.273-23.273v0h605.091c12.853 0 23.273 10.42 23.273 23.273v0 488.727h69.818c63.899 0.904 115.459 52.465 116.363 116.278l0.001 0.086v93.091c-0.904 63.899-52.465 115.459-116.278 116.363l-0.086 0.001zM232.727 168.727v605.091h558.545v-605.091h-558.545zM977.455 750.545c-1.009-38.147-31.671-68.809-69.723-69.816l-0.095-0.002h-69.818v93.091h23.273c12.853 0 23.273 10.42 23.273 23.273s-10.42 23.273-23.273 23.273v0h-698.182c-12.853 0-23.273-10.42-23.273-23.273s10.42-23.273 23.273-23.273v0h23.273v-93.091h-69.818c-38.147 1.009-68.809 31.671-69.816 69.723l-0.002 0.095v93.091c1.009 38.147 31.671 68.809 69.723 69.816l0.095 0.002h791.273c38.147-1.009 68.809-31.671 69.816-69.723l0.002-0.095v-93.091z" />
<glyph unicode="&#xe925;" glyph-name="net-internet" d="M689.571 928.349v0c-52.726 20.136-113.707 31.797-177.411 31.797-111.791 0-215.195-35.91-299.307-96.823l1.489 1.027-2.327-1.629c-129.028-93.796-211.952-244.231-211.952-414.035 0-25.86 1.923-51.27 5.635-76.096l-0.344 2.8s0 0 0 0c21.575-146.781 102.758-271.26 217.715-350.055l1.747-1.131 2.793-1.862c79.827-53.907 178.209-86.051 284.098-86.051 165.878 0 313.332 78.883 406.896 201.183l0.905 1.232c1.855 1.781 3.41 3.856 4.593 6.153l0.061 0.13c62.146 83.75 99.482 189.15 99.482 303.271 0 218.878-137.344 405.677-330.551 478.918l-3.52 1.171zM899.025 707.025c-37.896 3.338-81.985 5.241-126.52 5.241-11.568 0-23.105-0.128-34.612-0.384l1.713 0.030c-2.922 56.105-11.238 108.82-24.488 159.541l1.215-5.476c75.020-37.114 136.721-91.133 181.882-157.336l1.041-1.617zM660.713 888.553c17.029-52.657 28.439-113.602 31.806-176.683l0.077-1.819c-96.856-4.557-188.174-19.728-275.492-44.424l8.554 2.068c-82.313-24.64-154.102-59.306-218.921-103.448l2.717 1.746c0.512 93.674 13.563 184.086 37.554 269.932l-1.714-7.183c74.068 52.91 166.457 84.598 266.247 84.598 53.408 0 104.696-9.077 152.406-25.772l-3.234 0.985zM683.985 547.84c-21.338-106.173-73.231-197.817-145.997-267.953l-0.156-0.149-35.84 3.491c-28.429 2.399-61.526 3.766-94.942 3.766-44.106 0-87.656-2.382-130.528-7.026l5.31 0.467c-17.667 28.538-33.395 61.441-45.468 96.058l-1.078 3.55c-12.904 38.361-22.077 82.934-25.709 129.066l-0.124 1.96c65.2 47.714 141.040 85.938 222.772 110.569l5.301 1.372c75.54 21.643 163.121 36.149 253.386 40.397l2.614 0.098c-0.322-41.333-3.865-81.587-10.388-120.833l0.614 4.47zM493.149 236.916c-34.059-30.172-71.339-58.948-110.499-85.133l-3.77-2.373c-23.215 25.99-45.75 54.287-66.65 83.822l-2.005 2.986c27.386 2.304 59.271 3.618 91.462 3.618s64.075-1.314 95.602-3.891l-4.14 0.272zM53.527 370.036c34.921 39.215 72.043 74.714 111.822 107.073l1.749 1.378c4.548-42.074 12.74-80.345 24.422-117.059l-1.15 4.186c12.611-35.3 26.895-65.477 43.728-93.971l-1.371 2.509c-54.598-7.79-101.842-17.707-147.965-30.337l8.329 1.944c-17.822 35.962-31.591 77.686-39.171 121.53l-0.393 2.746zM186.182 779.171c-15.081-64.774-23.726-139.151-23.726-215.547 0-10.543 0.165-21.047 0.491-31.51l-0.038 1.53c-42.927-32.224-80.918-65.641-116.175-101.74l-0.189-0.194c0 5.353 0 10.705 0 16.291 0.186 129.749 53.591 246.989 139.552 331.089l0.084 0.082zM116.364 203.869c38.679 10.623 86.479 20.159 135.254 26.605l5.779 0.624c26.459-40.144 53.255-75.001 82.312-107.809l-0.858 0.987c-36.538-23.273-69.818-40.495-97.513-53.993-50.076 36.208-91.736 80.612-123.832 131.639l-1.142 1.946zM481.047-15.825c-72.053 4.658-138.405 25.142-196.884 57.985l2.324-1.2c25.135 13.265 53.527 29.091 84.015 48.175 34.823-36.656 70.875-70.938 108.599-103.328l1.946-1.632zM553.425-15.825c-52.078 41.801-98.7 84.44-142.451 129.864l-0.444 0.463c53.664 36.325 100.581 74.596 143.846 116.608l-0.253-0.244c115.778-14.344 221.086-43.888 319.164-86.871l-7.31 2.856c-76.922-90.527-186.824-151.007-310.917-162.766l-1.868-0.143zM895.302 184.32c-87.705 40.007-189.539 70.584-296.114 86.706l-6.431 0.8c68.462 72.234 117.091 163.912 136.769 265.903l0.54 3.363c6.315 37.367 10.031 80.539 10.239 124.54l0.001 0.202c9.161 0.205 19.958 0.322 30.782 0.322 54.739 0 108.78-2.991 161.968-8.819l-6.568 0.584c31.724-61.019 50.331-133.236 50.331-209.799 0-98.305-30.675-189.445-82.975-264.372l0.993 1.502z" />
<glyph unicode="&#xe926;" glyph-name="tel-send" horiz-adv-x="791" d="M535.273 587.636c12.853 0 23.273 10.42 23.273 23.273v0 256c0 51.413-41.678 93.091-93.091 93.091v0h-372.364c-51.413 0-93.091-41.678-93.091-93.091v0-837.818c0-51.413 41.678-93.091 93.091-93.091v0h372.364c51.413 0 93.091 41.678 93.091 93.091v0 302.545c0 12.853-10.42 23.273-23.273 23.273s-23.273-10.42-23.273-23.273v0-162.909h-465.455v558.545h465.455v-116.364c0-12.853 10.42-23.273 23.273-23.273v0 0zM512 122.182v-93.091c0-25.706-20.839-46.545-46.545-46.545v0h-372.364c-25.706 0-46.545 20.839-46.545 46.545v0 93.091h465.455zM46.545 773.818v93.091c0 25.706 20.839 46.545 46.545 46.545v0h372.364c25.706 0 46.545-20.839 46.545-46.545v0-93.091h-465.455zM395.636 866.909h-139.636c-12.853 0-23.273-10.42-23.273-23.273s10.42-23.273 23.273-23.273v0h139.636c12.853 0 23.273 10.42 23.273 23.273s-10.42 23.273-23.273 23.273v0 0zM184.32 852.48c-0.569 1.599-1.276 2.983-2.136 4.255l0.042-0.066-2.793 3.491-3.491 2.793-4.189 2.095-4.189 1.862c-1.363 0.331-2.929 0.521-4.538 0.521s-3.175-0.19-4.674-0.549l0.136 0.028c-1.65-0.236-3.14-0.726-4.499-1.433l0.077 0.037c-1.598-0.556-2.983-1.265-4.249-2.134l0.060 0.039-3.491-2.793c-4.252-4.218-6.884-10.064-6.884-16.524s2.632-12.305 6.883-16.522l0.002-0.002 3.491-2.793c1.206-0.83 2.591-1.538 4.065-2.057l0.124-0.038c1.282-0.666 2.771-1.156 4.345-1.387l0.077-0.009 4.422-0.931h4.655l4.189 1.396c1.598 0.556 2.983 1.265 4.249 2.134l-0.060-0.039 3.491 2.793 2.793 3.491c0.819 1.206 1.526 2.59 2.054 4.059l0.041 0.13c0.833 1.338 1.477 2.895 1.844 4.556l0.018 0.099c0.055 0.697 0.086 1.508 0.086 2.327s-0.031 1.631-0.092 2.434l0.007-0.107c0.055 0.697 0.086 1.508 0.086 2.327s-0.031 1.631-0.092 2.434l0.007-0.107c-0.263 1.57-0.75 2.977-1.433 4.265l0.037-0.076zM256 29.091h46.545c12.853 0 23.273 10.42 23.273 23.273s-10.42 23.273-23.273 23.273v0h-46.545c-12.853 0-23.273-10.42-23.273-23.273s10.42-23.273 23.273-23.273v0 0zM789.411 462.429c1.107 2.618 1.751 5.662 1.751 8.857 0 6.454-2.627 12.294-6.87 16.51l-139.637 139.637c-4.294 4.993-10.618 8.135-17.677 8.135-12.853 0-23.273-10.42-23.273-23.273 0-7.058 3.142-13.383 8.104-17.651l0.031-0.026 100.073-100.073h-502.458c-12.853 0-23.273-10.42-23.273-23.273s10.42-23.273 23.273-23.273v0h502.458l-99.84-99.84c-4.993-4.294-8.135-10.618-8.135-17.677 0-12.853 10.42-23.273 23.273-23.273 7.058 0 13.383 3.142 17.651 8.104l0.026 0.031 139.636 139.636c2.146 2.137 3.878 4.689 5.063 7.526l0.057 0.154z" />
<glyph unicode="&#xe927;" glyph-name="ui-field-text" d="M907.636 843.636h-791.273c-64.266 0-116.364-52.098-116.364-116.364v0-558.545c0-64.266 52.098-116.364 116.364-116.364v0h791.273c64.266 0 116.364 52.098 116.364 116.364v0 558.545c0 64.266-52.098 116.364-116.364 116.364v0 0zM977.455 168.727c0-38.56-31.259-69.818-69.818-69.818v0h-791.273c-38.56 0-69.818 31.259-69.818 69.818v0 558.545c0 38.56 31.259 69.818 69.818 69.818v0h791.273c38.56 0 69.818-31.259 69.818-69.818v0-558.545zM349.091 657.455c12.853 0 23.273 10.42 23.273 23.273s-10.42 23.273-23.273 23.273v0c-37.938 0-71.636-18.156-92.879-46.253l-0.212-0.293c-21.455 28.39-55.153 46.545-93.091 46.545v0c-12.853 0-23.273-10.42-23.273-23.273s10.42-23.273 23.273-23.273v0c38.56 0 69.818-31.259 69.818-69.818v0-279.273c0-38.56-31.259-69.818-69.818-69.818v0c-12.853 0-23.273-10.42-23.273-23.273s10.42-23.273 23.273-23.273v0c37.938 0 71.636 18.156 92.879 46.253l0.212 0.293c21.455-28.39 55.153-46.545 93.091-46.545v0c12.853 0 23.273 10.42 23.273 23.273s-10.42 23.273-23.273 23.273v0c-38.56 0-69.818 31.259-69.818 69.818v0 279.273c0 38.56 31.259 69.818 69.818 69.818v0 0z" />
<glyph unicode="&#xe928;" glyph-name="doc-pile" horiz-adv-x="1048" d="M1036.145 605.41l-131.215 79.062v103.114c0 0.014 0 0.031 0 0.048 0 8.475-4.427 15.916-11.095 20.136l-0.098 0.058-238.14 148.599c-3.555 2.226-7.875 3.546-12.502 3.546s-8.947-1.32-12.603-3.604l0.1 0.058-619.163-381.023c-6.809-4.27-11.269-11.735-11.269-20.242s4.46-15.972 11.17-20.184l0.099-0.058 381.023-238.14c3.582-2.271 7.944-3.62 12.621-3.62s9.039 1.348 12.719 3.677l-0.098-0.058 476.279 299.818c6.631 4.302 10.955 11.668 10.955 20.044 0 0.070 0 0.139-0.001 0.209v-0.011 11.907l73.585-44.056-573.678-358.638-368.402 230.281c-3.583 2.267-7.945 3.613-12.621 3.613-13.174 0-23.854-10.68-23.854-23.854 0-8.498 4.444-15.959 11.135-20.184l0.098-0.058 381.023-238.14c3.582-2.271 7.944-3.62 12.621-3.62s9.039 1.348 12.719 3.677l-0.098-0.058 619.163 387.215c6.809 4.27 11.269 11.735 11.269 20.242s-4.46 15.972-11.17 20.184l-0.099 0.058zM760.618 703.047l96.685 55.010v-107.639l-96.685 53.343zM404.837 345.124l-335.777 210.039 573.916 352.923 181.939-114.783-95.256-54.772c-12.182-7.755-20.146-21.188-20.146-36.481 0-15.88 8.587-29.754 21.371-37.232l0.204-0.11 98.113-54.296-424.365-265.287zM1011.617 480.149l-606.78-373.165-368.402 230.281c-3.583 2.267-7.945 3.613-12.621 3.613-13.174 0-23.854-10.68-23.854-23.854 0-8.498 4.444-15.959 11.135-20.184l0.098-0.058 381.023-238.14c3.565-2.242 7.9-3.572 12.545-3.572 0.027 0 0.054 0 0.081 0h-0.004c4.59 0.032 8.863 1.358 12.483 3.63l-0.099-0.058 619.163 381.023c5.214 4.398 8.503 10.934 8.503 18.24 0 13.152-10.662 23.814-23.814 23.814-3.057 0-5.98-0.576-8.665-1.626l0.162 0.056zM1011.617 361.079l-606.78-373.165-368.402 230.281c-3.583 2.267-7.945 3.613-12.621 3.613-13.174 0-23.854-10.68-23.854-23.854 0-8.498 4.444-15.959 11.135-20.184l0.098-0.058 381.023-238.14c3.565-2.242 7.9-3.572 12.545-3.572 0.027 0 0.054 0 0.081 0h-0.004c4.59 0.032 8.863 1.358 12.483 3.63l-0.099-0.058 619.163 381.023c5.214 4.398 8.503 10.934 8.503 18.24 0 13.152-10.662 23.814-23.814 23.814-3.057 0-5.98-0.576-8.665-1.626l0.162 0.056z" />
<glyph unicode="&#xe929;" glyph-name="pre-presenter-podium" horiz-adv-x="931" d="M605.091 797.091c0 100.538-53.527 162.909-139.636 162.909s-139.636-62.371-139.636-162.909 53.527-162.909 139.636-162.909 139.636 62.371 139.636 162.909v0zM465.455 680.727c-84.015 0-93.091 81.455-93.091 116.364s9.076 116.364 93.091 116.364 93.091-81.455 93.091-116.364-9.076-116.364-93.091-116.364v0zM139.636 471.273c0-12.853 10.42-23.273 23.273-23.273s23.273 10.42 23.273 23.273v0c0 85.876 73.076 116.364 279.273 116.364s279.273-30.487 279.273-116.364c0-12.853 10.42-23.273 23.273-23.273s23.273 10.42 23.273 23.273v0c0 150.342-168.262 162.909-325.818 162.909s-325.818-12.567-325.818-162.909v0zM907.636 401.455h-884.364c-12.853 0-23.273-10.42-23.273-23.273v0-93.091c0.059-3.567 0.912-6.92 2.388-9.911l-0.061 0.136 93.091-186.182c3.759-7.984 11.708-13.426 20.936-13.498h116.373v-116.364c0-12.853 10.42-23.273 23.273-23.273s23.273 10.42 23.273 23.273v0 209.455h372.364v-209.455c0-12.853 10.42-23.273 23.273-23.273s23.273 10.42 23.273 23.273v0 116.364h116.364c0.048 0 0.105-0.001 0.162-0.001 9.034 0 16.866 5.147 20.722 12.669l0.061 0.131 93.091 186.182s0 0 0 0c1.47 2.965 2.33 6.457 2.33 10.149 0 0.114-0.001 0.227-0.002 0.341v-0.017 93.091c0 12.853-10.42 23.273-23.273 23.273v0 0zM884.364 354.909v-46.545h-837.818v46.545h837.818zM800.116 122.182h-101.935v69.818c0 12.853-10.42 23.273-23.273 23.273v0h-418.909c-12.853 0-23.273-10.42-23.273-23.273v0-69.818h-101.935l-69.818 139.636h808.96l-69.818-139.636z" />
<glyph unicode="&#xe92a;" glyph-name="sho-wallet" horiz-adv-x="1252" d="M967.111 391.111c0-31.419-25.47-56.889-56.889-56.889s-56.889 25.47-56.889 56.889c0 31.419 25.47 56.889 56.889 56.889s56.889-25.47 56.889-56.889zM1137.778 786.489v31.289c-1.105 78.099-64.124 141.117-142.117 142.221l-0.105 0.001h-853.333c-78.099-1.105-141.117-64.124-142.221-142.117l-0.001-0.105v-739.556c1.105-78.099 64.124-141.117 142.117-142.221l0.105-0.001h853.333c78.099 1.105 141.117 64.124 142.221 142.117l0.001 0.105v145.067c65.381 13.696 113.778 70.87 113.778 139.349 0 0.010 0 0.020 0 0.031v-0.002 262.258c0.131 1.025 0.206 2.21 0.206 3.413s-0.075 2.389-0.22 3.552l0.014-0.139c0.52 4.568 0.817 9.862 0.817 15.225 0 68.771-48.812 126.142-113.68 139.357l-0.915 0.156zM995.556-7.111h-853.333c-46.624 1.234-84.1 38.71-85.331 85.217l-0.002 0.116v739.556c1.234 46.624 38.71 84.1 85.217 85.331l0.116 0.002h853.333c46.624-1.234 84.1-38.71 85.331-85.217l0.002-0.116v-1.707c-23.233 18.52-52.932 29.828-85.261 30.151l-0.072 0.001h-853.333c-15.709 0-28.444-12.735-28.444-28.444s12.735-28.444 28.444-28.444v0h853.333c46.624-1.234 84.1-38.71 85.331-85.217l0.002-0.116v-142.222h-170.667c-94.257 0-170.667-76.41-170.667-170.667s76.41-170.667 170.667-170.667v0h170.667v-142.222c-1.234-46.624-38.71-84.1-85.217-85.331l-0.116-0.002zM1194.667 362.667c0-47.128-38.205-85.333-85.333-85.333v0h-199.111c-62.838 0-113.778 50.94-113.778 113.778s50.94 113.778 113.778 113.778v0h199.111c32.178 0 61.86 10.686 85.691 28.704l-0.358-0.259v-170.667zM1137.778 566.898v137.102c-0.238 6.814-0.953 13.278-2.115 19.585l0.124-0.812c0.066 0.724 0.103 1.567 0.103 2.418s-0.037 1.693-0.111 2.526l0.008-0.108c33.074-12.255 56.22-43.531 56.22-80.213s-23.146-67.959-55.629-80.021l-0.59-0.192z" />
<glyph unicode="&#xe92b;" glyph-name="tim-calendar" horiz-adv-x="1075" d="M972.8 960h-870.4c-56.554 0-102.4-45.846-102.4-102.4v0-819.2c0-56.554 45.846-102.4 102.4-102.4v0h870.4c56.554 0 102.4 45.846 102.4 102.4v0 819.2c0 56.554-45.846 102.4-102.4 102.4v0 0zM102.4 908.8h870.4c28.277 0 51.2-22.923 51.2-51.2v0-153.6h-972.8v153.6c0 28.277 22.923 51.2 51.2 51.2v0 0zM972.8-12.8h-870.4c-28.277 0-51.2 22.923-51.2 51.2v0 614.4h972.8v-614.4c0-28.277-22.923-51.2-51.2-51.2v0 0zM409.6 601.6h102.4v-102.4h-102.4v102.4zM563.2 601.6h102.4v-102.4h-102.4v102.4zM716.8 601.6h102.4v-102.4h-102.4v102.4zM870.4 601.6h102.4v-102.4h-102.4v102.4zM102.4 448h102.4v-102.4h-102.4v102.4zM256 448h102.4v-102.4h-102.4v102.4zM409.6 448h102.4v-102.4h-102.4v102.4zM563.2 448h102.4v-102.4h-102.4v102.4zM716.8 448h102.4v-102.4h-102.4v102.4zM870.4 448h102.4v-102.4h-102.4v102.4zM870.4 294.4h102.4v-102.4h-102.4v102.4zM102.4 294.4h102.4v-102.4h-102.4v102.4zM256 294.4h102.4v-102.4h-102.4v102.4zM409.6 294.4h102.4v-102.4h-102.4v102.4zM563.2 294.4h102.4v-102.4h-102.4v102.4zM716.8 294.4h102.4v-102.4h-102.4v102.4zM102.4 140.8h102.4v-102.4h-102.4v102.4zM256 140.8h102.4v-102.4h-102.4v102.4zM409.6 140.8h102.4v-102.4h-102.4v102.4zM563.2 140.8h102.4v-102.4h-102.4v102.4z" />
<glyph unicode="&#xe92c;" glyph-name="uniE92C" horiz-adv-x="1252" d="M654.222 277.333h-584.533c-1.921-0.23-4.145-0.361-6.4-0.361s-4.479 0.131-6.666 0.386l0.266-0.025c-0.191 1.749-0.3 3.777-0.3 5.831s0.109 4.082 0.321 6.080l-0.021-0.249v583.964l378.027-341.333c11.751-14.626 28.864-24.527 48.312-26.708l0.328-0.030c19.156 2.033 35.769 11.525 47.117 25.472l0.101 0.128 379.449 342.471v-168.96c0-15.709 12.735-28.444 28.444-28.444s28.444 12.735 28.444 28.444v0 186.311c0.32 2.372 0.503 5.114 0.503 7.898 0 34.404-27.89 62.293-62.293 62.293-2.784 0-5.526-0.183-8.214-0.537l0.316 0.034h-827.733c-2.372 0.32-5.114 0.503-7.898 0.503-34.404 0-62.293-27.89-62.293-62.293 0-2.784 0.183-5.526 0.537-8.214l-0.034 0.316v-600.178c-0.446-2.775-0.701-5.975-0.701-9.235 0-33.775 27.38-61.156 61.156-61.156 3.259 0 6.459 0.255 9.58 0.746l-0.346-0.045h584.533c15.709 0 28.444 12.735 28.444 28.444s-12.735 28.444-28.444 28.444v0 0zM491.804 571.449l-8.249-7.68c-1.991 1.707-5.12 4.267-9.387 8.818l-365.796 330.524h750.364l-366.933-331.662z" />
<glyph unicode="&#xe92d;" glyph-name="uniE92D" horiz-adv-x="1252" d="M1223.111 561.778h-398.222c-15.709 0-28.444-12.735-28.444-28.444v0-568.889c0-15.709 12.735-28.444 28.444-28.444s28.444 12.735 28.444 28.444v0 256h369.778c15.709 0 28.444 12.735 28.444 28.444v0 284.444c0 15.709-12.735 28.444-28.444 28.444v0 0zM1194.667 277.333h-341.333v227.556h341.333v-227.556z" />
<glyph unicode="&#xe92e;" glyph-name="email" horiz-adv-x="1339" d="M1244.554 960h-1150.031c-3.569 0.54-7.687 0.849-11.877 0.849-46.113 0-83.495-37.382-83.495-83.495 0-4.19 0.309-8.308 0.904-12.332l-0.055 0.456v-831.015c0-66.954 31.508-98.462 94.523-98.462h1150.031c63.015 0 94.523 31.508 94.523 98.462v831.015c0.54 3.569 0.849 7.687 0.849 11.877 0 46.113-37.382 83.495-83.495 83.495-4.19 0-8.308-0.309-12.332-0.904l0.456 0.055zM669.538 881.231h519.877l-508.062-460.8-11.815-11.815-11.815 11.815-508.062 460.8h519.877zM1260.308 30.523v-15.754h-1181.538v823.138l523.815-472.615c16.533-19.405 39.985-32.485 66.496-35.405l0.457-0.041c26.969 2.961 50.421 16.042 66.835 35.303l0.119 0.143 523.815 472.615v-807.385z" />
<glyph unicode="&#xe92f;" glyph-name="spa-launch" d="M302.614 448.116h419.004c12.856 0 23.278 10.422 23.278 23.278v0 71.696c-0.028 6.359-2.601 12.112-6.752 16.296l0.002-0.002-98.699 100.095c0 8.846 0 17.691 0 26.77 0.698 151.074-106.148 262.343-110.571 266.999-4.23 4.323-10.124 7.004-16.644 7.004s-12.414-2.68-16.64-7l-0.004-0.004c-4.423-4.656-111.269-116.39-111.269-266.999 0-8.846 0-17.924 0-26.77l-98.699-100.095c-4.15-4.183-6.723-9.936-6.751-16.289v-71.701c0-12.856 10.422-23.278 23.278-23.278v0 0zM698.341 533.547v-38.874h-85.43c7.913 28.252 15.234 63.549 20.393 99.543l0.557 4.742 64.48-65.411zM512.116 901.107c47.779-58.352 77.937-132.772 81.447-214.1l0.026-0.756c-1.668-68.849-12.183-134.569-30.452-196.977l1.355 5.399h-104.751c-16.914 57.010-27.43 122.729-29.080 190.647l-0.018 0.931c3.643 82.069 33.779 156.462 81.994 215.515l-0.521-0.659zM325.892 533.547l64.48 65.411c5.733-40.766 13.054-76.062 22.391-110.529l-1.44 6.243h-85.43v38.874zM638.749 192.058c-12.856 0-23.278-10.422-23.278-23.278s10.422-23.278 23.278-23.278v0c2.711 0.334 5.849 0.525 9.032 0.525 34.090 0 63.071-21.874 73.672-52.353l0.166-0.547c2.673-10.126 11.75-17.47 22.542-17.47 0.259 0 0.517 0.004 0.774 0.013l-0.037-0.001h5.587c10.227 2.601 17.67 11.728 17.67 22.592 0 1.979-0.247 3.9-0.712 5.735l0.035-0.161c-16.286 51.698-63.796 88.534-119.909 88.534-3.103 0-6.18-0.113-9.226-0.334l0.408 0.024zM471.38 190.894c-7.892 3.178-17.042 5.021-26.623 5.021-20.254 0-38.583-8.238-51.821-21.545l-0.003-0.003c-2.97-2.97-5.718-6.161-8.218-9.547l-0.162-0.23c-10.808 5.25-23.51 8.318-36.928 8.318-47.568 0-86.129-38.561-86.129-86.129 0-11.993 2.451-23.414 6.88-33.788l-0.213 0.562c3.931-7.473 11.613-12.497 20.475-12.57h0.010c0.017 0 0.037 0 0.058 0 12.856 0 23.278 10.422 23.278 23.278 0 3.548-0.794 6.91-2.213 9.919l0.060-0.142c-1.32 3.755-2.083 8.085-2.083 12.594 0 12.414 5.785 23.478 14.806 30.642l0.080 0.062c20.95 20.95 57.729-2.793 57.962-3.026 3.609-2.412 8.047-3.849 12.821-3.849 10.236 0 18.93 6.607 22.047 15.79l0.048 0.164c3.604 12.692 15.091 21.832 28.712 21.832 4.531 0 8.827-1.012 12.672-2.821l-0.182 0.077c2.188-0.751 4.71-1.184 7.333-1.184 12.867 0 23.298 10.431 23.298 23.298 0 10.245-6.612 18.945-15.801 22.066l-0.164 0.048zM863.614 225.811c-14.357 61.137-68.428 105.958-132.967 105.958-18.528 0-36.193-3.694-52.298-10.385l0.903 0.333c-39.706 48.864-99.8 79.831-167.127 79.831-81.584 0-152.548-45.472-188.93-112.454l-0.562-1.131c-16.542 5.531-35.588 8.722-55.38 8.722-85.853 0-157.681-60.048-175.776-140.436l-0.228-1.204c-52.278-9.33-91.45-54.445-91.45-108.709 0-60.938 49.4-110.338 110.338-110.338 0.152 0 0.304 0 0.457 0.001h803.069c61.013 0.132 110.438 49.557 110.571 110.558v0.013c-0.15 92.591-69.94 168.835-159.783 179.163l-0.835 0.078zM913.662-17.444h-803.092c-35.354 0-64.015 28.66-64.015 64.015s28.66 64.015 64.015 64.015v0h1.164c0.195 0.002 0.425 0.003 0.656 0.003 13.716 0 26.413-4.361 36.781-11.773l-0.192 0.13c3.842-2.907 8.7-4.656 13.967-4.656 12.856 0 23.278 10.422 23.278 23.278 0 7.589-3.632 14.33-9.253 18.58l-0.059 0.042c-10.613 7.594-23.059 13.452-36.488 16.832l-0.757 0.161c16.254 56.492 67.474 97.122 128.183 97.122 13.386 0 26.311-1.975 38.499-5.651l-0.943 0.244c-3.519-11.745-6.155-25.525-7.393-39.707l-0.056-0.797c-0.052-0.584-0.082-1.263-0.082-1.949 0-12.147 9.304-22.122 21.175-23.184l0.089-0.006h1.862c0.022 0 0.048 0 0.075 0 12.201 0 22.209 9.386 23.198 21.332l0.006 0.084c7.642 86.815 80.005 154.393 168.153 154.393 77.155 0 142.217-51.775 162.339-122.476l0.29-1.19c2.798-9.952 11.793-17.126 22.463-17.126 12.865 0 23.295 10.429 23.295 23.295 0 2.195-0.304 4.319-0.871 6.333l0.040-0.164c-4.155 14.531-9.148 27.044-15.223 38.911l0.558-1.201c7.322 2.143 15.733 3.376 24.431 3.376 39.033 0 72.268-24.824 84.778-59.547l0.198-0.628c-9.068-1.469-16.915-3.332-24.545-5.691l1.267 0.337c-10.349-2.512-17.914-11.699-17.914-22.652 0-12.856 10.422-23.278 23.278-23.278 2.923 0 5.72 0.539 8.297 1.522l-0.16-0.054c11.564 3.61 24.86 5.689 38.642 5.689 74.005 0 134.007-59.956 134.081-133.944v-0.007c0-35.354-28.66-64.015-64.015-64.015v0 0z" />
<glyph unicode="&#xe930;" glyph-name="ema-noflag" horiz-adv-x="1252" d="M913.067 280.178l-844.8-2.844c-5.689 0-11.378 0-11.378 0 0 2.844 0 5.689 0 11.378v583.111l378.311-341.333c17.067-17.067 34.133-25.6 48.356-25.6s31.289 8.533 48.356 25.6l378.311 341.333v-622.933c0-17.067 11.378-28.444 28.444-28.444s28.444 11.378 28.444 28.444v642.844c0 45.511-22.756 68.267-68.267 68.267h-830.578c-45.511 0-68.267-22.756-68.267-68.267v-600.178c0-48.356 22.756-71.111 68.267-71.111h870.4c17.067 0 2.844 17.067 2.844 31.289zM492.089 570.311c-2.844-2.844-5.689-5.689-8.533-8.533-2.844 2.844-5.689 5.689-8.533 8.533l-366.933 332.8h750.933l-366.933-332.8z" />
<glyph unicode="&#xe931;" glyph-name="des-feather-pen" d="M51.2-62.138c2.765-1.251 5.995-1.981 9.395-1.981 7.538 0 14.238 3.583 18.491 9.139l0.041 0.056c13.033 17.222 58.182 66.095 93.091 66.095 0.14-0.003 0.304-0.005 0.469-0.005 11.207 0 20.564 7.922 22.777 18.471l0.027 0.151c13.96 65.15 33.446 122.462 58.664 176.566l-2.112-5.046c51.898 11.171 302.545 72.145 477.091 248.785 191.535 194.095 245.76 470.342 248.32 481.978 0 0 0 0 0 1.629 0.126 0.909 0.197 1.959 0.197 3.025s-0.072 2.117-0.211 3.145l0.013-0.12c0.039 0.488 0.061 1.056 0.061 1.629s-0.022 1.141-0.066 1.704l0.005-0.074s0 0 0 1.396c-1.223 1.676-2.603 3.129-4.147 4.389l-0.042 0.033c0.014 0.278 0.022 0.603 0.022 0.931s-0.008 0.653-0.023 0.977l0.002-0.046c-1.916 2.358-4.233 4.305-6.862 5.758l-0.12 0.061h-1.862c-2.324 1.598-5.053 2.808-7.991 3.462l-0.155 0.029c-18.851 0-441.716 16.756-688.64-232.727-92.283-86.108-149.809-208.441-149.809-344.209 0-28.865 2.6-57.123 7.579-84.553l-0.432 2.871c-40.076-61.057-80.9-132.862-117.329-207.212l-5.318-12.017c-1.476-2.97-2.339-6.469-2.339-10.169 0-9.221 5.362-17.189 13.139-20.956l0.139-0.061c35.375-16.756 23.273-87.040 23.273-87.738-0.23-1.228-0.361-2.64-0.361-4.083 0-9.446 5.627-17.577 13.712-21.225l0.147-0.059zM744.727 537.6c-104.96-112.873-271.825-104.262-273.222-104.029-0.429 0.028-0.931 0.044-1.436 0.044-12.378 0-22.498-9.663-23.23-21.856l-0.003-0.064c-0.028-0.429-0.044-0.931-0.044-1.436 0-12.378 9.663-22.498 21.856-23.23l0.064-0.003h13.265c41.563 0.471 81.58 6.217 119.687 16.597l-3.323-0.771c-92.105-63.233-199.146-113.487-313.973-144.888l-7.423-1.73c171.055 321.862 515.724 554.822 641.164 631.855-37.343-134.15-96.878-251.106-175.161-352.895l1.779 2.408zM300.451 694.458c32.902 32.879 69.681 61.885 109.591 86.271l2.584 1.467c-8.785-15.52-14.823-33.736-16.934-53.132l-0.055-0.628c0-12.853 10.42-23.273 23.273-23.273v0 0c12.853 0 23.273 10.42 23.273 23.273v0s5.353 79.36 131.956 129.862c64.314 21.955 139.866 39.125 217.85 48.358l5.336 0.514c-72.524-33.905-134.024-69.199-192.271-108.91l4.692 3.020c-176.25-119.198-324.036-265.576-441.133-434.807l-3.608-5.513c-0.242 5.419-0.38 11.773-0.38 18.16 0 124.186 52.099 236.203 135.632 315.388l0.195 0.183zM734.953 820.364c-45.149-33.28-94.953-72.378-145.687-116.364-165.236-144.058-372.364-372.364-436.364-648.844-27.175-7.476-50.638-20.764-69.938-38.509l0.12 0.109c-2.914 24.755-14.016 46.491-30.481 62.83l-0.007 0.007c208.058 421.004 488.727 636.276 682.356 740.771v0zM162.909-64h465.455c12.853 0 23.273 10.42 23.273 23.273s-10.42 23.273-23.273 23.273v0h-465.455c-12.853 0-23.273-10.42-23.273-23.273s10.42-23.273 23.273-23.273v0 0zM721.455-17.455c-12.853 0-23.273-10.42-23.273-23.273s10.42-23.273 23.273-23.273v0h139.636c12.853 0 23.273 10.42 23.273 23.273s-10.42 23.273-23.273 23.273v0h-139.636zM1000.727-17.455h-46.545c-12.853 0-23.273-10.42-23.273-23.273s10.42-23.273 23.273-23.273v0h46.545c12.853 0 23.273 10.42 23.273 23.273s-10.42 23.273-23.273 23.273v0 0z" />
</font>
</defs>
</svg>
