<?xml version="1.0" encoding="UTF-8" standalone="no"?>
<svg width="44px" height="44px" viewBox="0 0 44 44" version="1.1" xmlns="http://www.w3.org/2000/svg" xmlns:xlink="http://www.w3.org/1999/xlink">
    <!-- Generator: Sketch 3.7.2 (28276) - http://www.bohemiancoding.com/sketch -->
    <title>con-toolbox</title>
    <desc>Created with Sketch.</desc>
    <defs></defs>
    <g id="44px-Glyph" stroke="none" stroke-width="1" fill="none" fill-rule="evenodd">
        <g id="con-toolbox" fill="#fff">
            <path d="M29,9 C28.447,9 28,8.552 28,8 C28,6.897 27.103,6 26,6 L18,6 C16.898,6 16,6.897 16,8 C16,8.552 15.553,9 15,9 C14.447,9 14,8.552 14,8 C14,5.794 15.794,4 18,4 L26,4 C28.206,4 30,5.794 30,8 C30,8.552 29.553,9 29,9" id="Fill-169"></path>
            <path d="M8,24.002 L8,21 C8,20.448 8.447,20 9,20 L13,20 C13.553,20 14,20.448 14,21 L14,24 L30,24 L30,21 C30,20.448 30.447,20 31,20 L35,20 C35.553,20 36,20.448 36,21 L36,24 L44,24 L44,11 C44,10.448 43.553,10 43,10 L1,10 C0.447,10 0,10.448 0,11 L0,24.002 L8,24.002 Z" id="Fill-170"></path>
            <polygon id="Fill-171" points="32 28.002 34 28.002 34 22 32 22"></polygon>
            <polygon id="Fill-172" points="10 28.002 12 28.002 12 22 10 22"></polygon>
            <path d="M36,26 L36,29.002 C36,29.554 35.553,30.002 35,30.002 L31,30.002 C30.447,30.002 30,29.554 30,29.002 L30,26 L14,26 L14,29.002 C14,29.554 13.553,30.002 13,30.002 L9,30.002 C8.447,30.002 8,29.554 8,29.002 L8,26.002 L0,26.002 L0,39 C0,39.552 0.447,40 1,40 L43,40 C43.553,40 44,39.552 44,39 L44,26 L36,26 Z" id="Fill-173"></path>
        </g>
    </g>
</svg>