<?xml version="1.0" encoding="UTF-8" standalone="no"?>
<svg width="44px" height="44px" viewBox="0 0 44 44" version="1.1" xmlns="http://www.w3.org/2000/svg" xmlns:xlink="http://www.w3.org/1999/xlink">
    <!-- Generator: Sketch 3.7.2 (28276) - http://www.bohemiancoding.com/sketch -->
    <title>fil-download</title>
    <desc>Created with Sketch.</desc>
    <defs></defs>
    <g id="44px-Line" stroke="#33CC00" stroke-width="1" fill="none" fill-rule="evenodd">
        <g id="fil-download"></g>
        <path d="M26.293,24.293 L22,28.586 L22,15 C22,14.447 21.552,14 21,14 C20.448,14 20,14.447 20,15 L20,28.586 L15.707,24.293 C15.316,23.902 14.684,23.902 14.293,24.293 C13.902,24.684 13.902,25.316 14.293,25.707 L20.292,31.706 C20.384,31.799 20.495,31.872 20.618,31.923 C20.74,31.973 20.87,32 21,32 C21.13,32 21.26,31.973 21.382,31.923 C21.505,31.872 21.615,31.799 21.708,31.706 L27.707,25.707 C28.098,25.316 28.098,24.684 27.707,24.293 C27.316,23.902 26.684,23.902 26.293,24.293 L26.293,24.293 Z" id="Shape" fill="#33CC00"></path>
        <path d="M28.707,0.293 C28.52,0.105 28.265,0 28,0 L7,0 C5.346,0 4,1.346 4,3 L4,41 C4,42.654 5.346,44 7,44 L35,44 C36.654,44 38,42.654 38,41 L38,10 C38,9.734 37.895,9.48 37.707,9.293 L28.707,0.293 L28.707,0.293 Z M35.586,10 L29,10 C28.449,10 28,9.552 28,9 L28,2.414 L35.586,10 L35.586,10 Z M35,42 L7,42 C6.449,42 6,41.552 6,41 L6,3 C6,2.448 6.449,2 7,2 L26,2 L26,9 C26,10.654 27.346,12 29,12 L36,12 L36,41 C36,41.552 35.551,42 35,42 L35,42 Z" id="Shape" fill="#33CC00"></path>
    </g>
</svg>